<svg xmlns="http://www.w3.org/2000/svg" width="37.715" height="48" viewBox="0 0 37.715 48">
  <defs>
    <style>
      .cls-1 {
        fill: #7871f8;
      }
    </style>
  </defs>
  <g id="정보입력" transform="translate(-960 -611)">
    <path id="패스_10" data-name="패스 10" class="cls-1" d="M37.286,20.572h-15a5.144,5.144,0,0,1-5.143-5.143v-15A.429.429,0,0,0,16.715,0H6.858A6.857,6.857,0,0,0,0,6.857V41.143A6.857,6.857,0,0,0,6.858,48h24a6.857,6.857,0,0,0,6.857-6.857V21a.428.428,0,0,0-.429-.428M27.429,37.714H10.286a1.714,1.714,0,0,1,0-3.428H27.429a1.714,1.714,0,0,1,0,3.428m0-8.571H10.286a1.714,1.714,0,0,1,0-3.429H27.429a1.714,1.714,0,0,1,0,3.429" transform="translate(960 611)"/>
    <path id="패스_11" data-name="패스 11" class="cls-1" d="M36.345,16.778,20.937,1.37a.214.214,0,0,0-.3,0,.217.217,0,0,0-.063.15V15.429a1.714,1.714,0,0,0,1.715,1.714H36.194a.214.214,0,0,0,.151-.365" transform="translate(960 611)"/>
  </g>
</svg>
