<svg id="참석" xmlns="http://www.w3.org/2000/svg" xmlns:xlink="http://www.w3.org/1999/xlink" width="48" height="40" viewBox="0 0 48 40">
  <defs>
    <style>
      .cls-1 {
        fill: none;
      }

      .cls-2 {
        clip-path: url(#clip-path);
      }

      .cls-3 {
        fill: #fff;
      }
    </style>
    <clipPath id="clip-path">
      <rect id="사각형_5" data-name="사각형 5" class="cls-1" width="48" height="40"/>
    </clipPath>
  </defs>
  <g id="그룹_9" data-name="그룹 9" class="cls-2">
    <path id="패스_13" data-name="패스 13" class="cls-3" d="M12.368,2.891A10,10,0,0,1,19.608,0a9.966,9.966,0,0,1,7.224,2.909,9.116,9.116,0,0,1,2.548,7.2c-.425,5.456-4.8,9.9-9.772,9.9s-9.355-4.439-9.774-9.9a9.141,9.141,0,0,1,2.534-7.212"/>
    <path id="패스_14" data-name="패스 14" class="cls-3" d="M19.176,29.246a5.406,5.406,0,0,1,1.689-3.86,5.783,5.783,0,0,1,3.871-1.569h.124a5.66,5.66,0,0,1,3.958,1.649c.039.039.068.069,3.819,4.013L34.049,27.8a17.978,17.978,0,0,0-2.073-1.545,23.424,23.424,0,0,0-12.368-3.393A23.415,23.415,0,0,0,7.24,26.25,15.277,15.277,0,0,0,.059,36.407a3.029,3.029,0,0,0,.677,2.6A2.988,2.988,0,0,0,3.017,40H27.248L20.73,33.107a5.367,5.367,0,0,1-1.554-3.861"/>
    <path id="패스_15" data-name="패스 15" class="cls-3" d="M47.211,20.819a2.255,2.255,0,0,0-3.121.265L32.8,34.543s-6.372-6.7-6.415-6.743a2.23,2.23,0,0,0-1.559-.651,2.349,2.349,0,0,0-1.573.618,2.13,2.13,0,0,0-.044,3.05l8.007,8.466A2.261,2.261,0,0,0,32.9,40a2.234,2.234,0,0,0,1.661-.772L47.482,23.869a2.134,2.134,0,0,0-.271-3.05"/>
  </g>
</svg>
