<svg xmlns="http://www.w3.org/2000/svg" width="27" height="48" viewBox="0 0 27 48">
  <defs>
    <style>
      .cls-1 {
        fill: #7871f8;
      }

      .cls-2 {
        fill: none;
        stroke: #7871f8;
        stroke-miterlimit: 10;
        stroke-width: 0.5px;
      }
    </style>
  </defs>
  <g id="본인인증" transform="translate(-849.946 -596.941)">
    <path id="패스_4" data-name="패스 4" class="cls-1" d="M87.892,0h-15a6,6,0,0,0-6,6V42a6,6,0,0,0,6,6h15a6,6,0,0,0,6-6V6a6,6,0,0,0-6-6m3,42a3,3,0,0,1-3,3h-15a3,3,0,0,1-3-3V6a3,3,0,0,1,3-3h1.064a.744.744,0,0,1,.684.445A3,3,0,0,0,77.392,5.25h6a3,3,0,0,0,2.752-1.805A.744.744,0,0,1,86.828,3h1.064a3,3,0,0,1,3,3Z" transform="translate(783.054 596.941)"/>
    <path id="패스_5" data-name="패스 5" class="cls-1" d="M87.892,0h-15a6,6,0,0,0-6,6V42a6,6,0,0,0,6,6h15a6,6,0,0,0,6-6V6a6,6,0,0,0-6-6m3,42a3,3,0,0,1-3,3h-15a3,3,0,0,1-3-3V6a3,3,0,0,1,3-3h1.064a.744.744,0,0,1,.684.445A3,3,0,0,0,77.392,5.25h6a3,3,0,0,0,2.752-1.805A.744.744,0,0,1,86.828,3h1.064a3,3,0,0,1,3,3Z" transform="translate(783.054 596.941)"/>
    <path id="패스_6" data-name="패스 6" class="cls-1" d="M85.9,20.669a1.025,1.025,0,0,0-1.441.125l-5.214,6.358s-2.943-3.165-2.963-3.185a1.011,1.011,0,0,0-.72-.307,1.071,1.071,0,0,0-.726.291,1.022,1.022,0,0,0-.02,1.441l3.7,4a1.035,1.035,0,0,0,.777.338,1.017,1.017,0,0,0,.767-.365l5.968-7.255a1.024,1.024,0,0,0-.125-1.441" transform="translate(783.054 596.941)"/>
    <path id="패스_7" data-name="패스 7" class="cls-2" d="M85.9,20.669a1.025,1.025,0,0,0-1.441.125l-5.214,6.358s-2.943-3.165-2.963-3.185a1.011,1.011,0,0,0-.72-.307,1.071,1.071,0,0,0-.726.291,1.022,1.022,0,0,0-.02,1.441l3.7,4a1.035,1.035,0,0,0,.777.338,1.017,1.017,0,0,0,.767-.365l5.968-7.255A1.024,1.024,0,0,0,85.9,20.669Z" transform="translate(783.054 596.941)"/>
  </g>
</svg>
