<svg xmlns="http://www.w3.org/2000/svg" width="48" height="48" viewBox="0 0 48 48">
  <defs>
    <style>
      .cls-1 {
        fill: #7871f8;
      }

      .cls-2 {
        fill: #fff;
      }
    </style>
  </defs>
  <g id="완료안내" transform="translate(-1004.853 -616.679)">
    <path id="패스_8" data-name="패스 8" class="cls-1" d="M68.853,5.679a24,24,0,1,0,24,24,24,24,0,0,0-24-24" transform="translate(960 611)"/>
    <path id="패스_9" data-name="패스 9" class="cls-2" d="M79.574,22.55a1.948,1.948,0,0,0-2.741.238l-9.92,12.1s-5.6-6.022-5.636-6.06a1.936,1.936,0,0,0-1.369-.585,2.042,2.042,0,0,0-1.382.555,1.946,1.946,0,0,0-.039,2.742l7.034,7.608A1.965,1.965,0,0,0,67,39.789a1.945,1.945,0,0,0,1.46-.695l11.353-13.8a1.948,1.948,0,0,0-.238-2.741" transform="translate(960 611)"/>
  </g>
</svg>
