<svg id="약관동의" xmlns="http://www.w3.org/2000/svg" xmlns:xlink="http://www.w3.org/1999/xlink" width="36" height="48" viewBox="0 0 36 48">
  <defs>
    <style>
      .cls-1 {
        fill: none;
      }

      .cls-2 {
        clip-path: url(#clip-path);
      }

      .cls-3 {
        fill: #7871f8;
      }
    </style>
    <clipPath id="clip-path">
      <rect id="사각형_4" data-name="사각형 4" class="cls-1" width="36" height="48"/>
    </clipPath>
  </defs>
  <g id="그룹_7" data-name="그룹 7" class="cls-2">
    <path id="패스_12" data-name="패스 12" class="cls-3" d="M29.454,3.2H28.287a.819.819,0,0,1-.761-.508A4.312,4.312,0,0,0,23.509,0H12.49A4.313,4.313,0,0,0,8.473,2.692a.818.818,0,0,1-.761.508H6.545A6.473,6.473,0,0,0,0,9.6v32A6.474,6.474,0,0,0,6.545,48H29.454A6.475,6.475,0,0,0,36,41.6V9.6a6.474,6.474,0,0,0-6.546-6.4M11.467,6.4H24.532a1.6,1.6,0,1,1,0,3.2H11.467a1.6,1.6,0,1,1,0-3.2m15.1,31.635H9.428a1.714,1.714,0,0,1,0-3.428H26.571a1.714,1.714,0,0,1,0,3.428m0-8.247H9.428a1.715,1.715,0,0,1,0-3.429H26.571a1.715,1.715,0,0,1,0,3.429m0-8.248H9.428a1.715,1.715,0,0,1,0-3.429H26.571a1.715,1.715,0,0,1,0,3.429"/>
  </g>
</svg>
