<svg xmlns="http://www.w3.org/2000/svg" width="36" height="48" viewBox="0 0 36 48">
  <defs>
    <style>
      .cls-1 {
        fill: #7871f8;
      }
    </style>
  </defs>
  <path id="로그인" class="cls-1" d="M29.455,3.34H6.546A6.481,6.481,0,0,0,0,9.74v35.2a6.481,6.481,0,0,0,6.546,6.4H29.455A6.481,6.481,0,0,0,36,44.94V9.74a6.481,6.481,0,0,0-6.545-6.4m-8.1,22.051a4.436,4.436,0,0,1,1.181,3.44c-.2,2.608-2.23,4.73-4.533,4.73s-4.34-2.122-4.534-4.73a4.443,4.443,0,0,1,1.176-3.447,4.75,4.75,0,0,1,6.71.007M11.455,9.74a1.618,1.618,0,0,1,1.636-1.6h9.818a1.6,1.6,0,1,1,0,3.2H13.091a1.618,1.618,0,0,1-1.636-1.6M26.755,43.1a1.386,1.386,0,0,1-1.059.464H10.3A1.387,1.387,0,0,1,9.245,43.1a1.422,1.422,0,0,1-.313-1.214,7.134,7.134,0,0,1,3.331-4.743A10.811,10.811,0,0,1,18,35.562a10.809,10.809,0,0,1,5.737,1.584,7.135,7.135,0,0,1,3.332,4.743,1.423,1.423,0,0,1-.314,1.214" transform="translate(0 -3.34)"/>
</svg>
