<svg id="첨부파일다운" xmlns="http://www.w3.org/2000/svg" xmlns:xlink="http://www.w3.org/1999/xlink" width="32" height="32" viewBox="0 0 32 32">
  <defs>
    <style>
      .cls-1 {
        fill: none;
      }

      .cls-2 {
        clip-path: url(#clip-path);
      }

      .cls-3 {
        fill: #ddd;
      }

      .cls-4 {
        fill: #666;
      }
    </style>
    <clipPath id="clip-path">
      <rect id="사각형_41" data-name="사각형 41" class="cls-1" width="32" height="32"/>
    </clipPath>
  </defs>
  <g id="그룹_78" data-name="그룹 78" class="cls-2">
    <path id="패스_61" data-name="패스 61" class="cls-3" d="M32,16A16,16,0,1,1,16,0,16,16,0,0,1,32,16"/>
    <path id="패스_62" data-name="패스 62" class="cls-4" d="M20.773,22.5H11.228A2.192,2.192,0,0,1,9,20.351V13.608a2.192,2.192,0,0,1,2.228-2.148h1.59a.614.614,0,1,1,0,1.228h-1.59a.939.939,0,0,0-.955.92v6.743a.939.939,0,0,0,.955.921h9.545a.94.94,0,0,0,.955-.921V13.608a.94.94,0,0,0-.955-.92H19.182a.614.614,0,1,1,0-1.228h1.591A2.191,2.191,0,0,1,23,13.608v6.743A2.191,2.191,0,0,1,20.773,22.5"/>
    <path id="패스_63" data-name="패스 63" class="cls-4" d="M16,18.969a.648.648,0,0,1-.45-.18l-2.467-2.38a.6.6,0,0,1,0-.868.652.652,0,0,1,.9,0l1.381,1.332V8.114a.636.636,0,0,1,1.272,0v8.759l1.381-1.332a.652.652,0,0,1,.9,0,.6.6,0,0,1,0,.868l-2.467,2.38a.648.648,0,0,1-.45.18"/>
  </g>
</svg>
