<svg xmlns="http://www.w3.org/2000/svg" xmlns:xlink="http://www.w3.org/1999/xlink" width="16" height="16" viewBox="0 0 16 16">
  <defs>
    <style>
      .cls-1 {
        fill: #726bf8;
      }

      .cls-1, .cls-2, .cls-8 {
        stroke: #ddd;
      }

      .cls-2, .cls-4 {
        fill: #fff;
      }

      .cls-3 {
        clip-path: url(#clip-path);
      }

      .cls-4, .cls-5, .cls-6, .cls-7 {
        stroke: rgba(0,0,0,0);
      }

      .cls-6 {
        fill: #cd2e3a;
      }

      .cls-7 {
        fill: #0047a0;
      }

      .cls-10, .cls-8 {
        fill: none;
      }

      .cls-9 {
        stroke: none;
      }
    </style>
    <clipPath id="clip-path">
      <circle id="Ellipse_5" data-name="Ellipse 5" class="cls-1" cx="8" cy="8" r="8" transform="translate(16 63)"/>
    </clipPath>
  </defs>
  <g id="Ellipse_5-2" data-name="Ellipse 5" transform="translate(-16 -63)">
    <g id="Ellipse_5-3" data-name="Ellipse 5" class="cls-2" transform="translate(16 63)">
      <circle class="cls-9" cx="8" cy="8" r="8"/>
      <circle class="cls-10" cx="8" cy="8" r="7.5"/>
    </g>
    <g id="Clip" class="cls-3">
      <g id="대한민국" transform="translate(14.533 64.689)">
        <g id="그룹_11" data-name="그룹 11">
          <rect id="사각형_3" data-name="사각형 3" class="cls-4" width="18" height="12" transform="translate(0.467 0.311)"/>
        </g>
        <g id="그룹_16" data-name="그룹 16" transform="translate(2.903 1.206)">
          <g id="b2">
            <g id="b">
              <path id="패스_13" data-name="패스 13" class="cls-5" d="M3.957,4.339l1.75-2.626M4.613,4.777l1.75-2.626M5.27,5.214,7.02,2.589" transform="translate(-3.738 -1.568)"/>
              <path id="패스_14" data-name="패스 14" class="cls-5" d="M5.43,5.321l-.438-.292L6.743,2.4,7.18,2.7Zm-.656-.438-.438-.292,1.75-2.626.438.292Zm-.656-.438-.438-.292L5.43,1.529l.438.292Z" transform="translate(-3.679 -1.529)"/>
            </g>
            <g id="그룹_12" data-name="그룹 12" transform="translate(9.627 6.418)">
              <g id="b-2" data-name="b" transform="translate(0)">
                <path id="패스_15" data-name="패스 15" class="cls-5" d="M16.16,12.475l1.75-2.626m-1.094,3.063,1.75-2.626M17.473,13.35l1.75-2.626" transform="translate(-15.941 -9.703)"/>
                <path id="패스_16" data-name="패스 16" class="cls-5" d="M17.633,13.457l-.438-.292,1.75-2.626.438.292Zm-.656-.438-.438-.292L18.29,10.1l.438.292Zm-.656-.438-.438-.292,1.75-2.626.438.292Z" transform="translate(-15.883 -9.664)"/>
              </g>
            </g>
          </g>
          <g id="그룹_13" data-name="그룹 13" transform="translate(10.211 7.476)">
            <path id="패스_17" data-name="패스 17" class="cls-5" d="M16.715,11.143,18.9,12.6" transform="translate(-16.642 -11.034)"/>
            <rect id="사각형_4" data-name="사각형 4" class="cls-4" width="0.263" height="2.63" transform="matrix(0.555, -0.832, 0.832, 0.555, 0, 0.219)"/>
          </g>
          <g id="그룹_14" data-name="그룹 14" transform="translate(3.408 2.048)">
            <circle id="타원_2" data-name="타원 2" class="cls-6" cx="3" cy="3" r="3" transform="translate(0.156 0.058)"/>
          </g>
          <g id="그룹_15" data-name="그룹 15" transform="translate(3.564 3.482)">
            <path id="패스_18" data-name="패스 18" class="cls-7" d="M8.5,5.781a1.487,1.487,0,0,0,2.474,1.65,1.487,1.487,0,0,1,2.474,1.65A2.974,2.974,0,1,1,8.5,5.781Z" transform="translate(-8 -5.781)"/>
          </g>
        </g>
        <g id="그룹_20" data-name="그룹 20" transform="translate(2.903 1.206)">
          <g id="그룹_18" data-name="그룹 18">
            <g id="b2-2" data-name="b2">
              <g id="b-3" data-name="b" transform="translate(0 6.418)">
                <path id="패스_19" data-name="패스 19" class="cls-5" d="M5.707,13.35l-1.75-2.626m2.407,2.188-1.75-2.626M7.02,12.475,5.27,9.849" transform="translate(-3.738 -9.703)"/>
                <path id="패스_20" data-name="패스 20" class="cls-5" d="M5.43,13.457l-1.75-2.626.438-.292,1.75,2.626Zm.656-.438-1.75-2.626.438-.292,1.75,2.626Zm.656-.438L4.992,9.956l.438-.292L7.18,12.29Z" transform="translate(-3.679 -9.664)"/>
              </g>
              <g id="그룹_17" data-name="그룹 17" transform="translate(9.627)">
                <g id="b-4" data-name="b" transform="translate(0)">
                  <path id="패스_21" data-name="패스 21" class="cls-5" d="M17.911,5.214,16.16,2.589m2.407,2.188-1.75-2.626m2.407,2.188-1.75-2.626" transform="translate(-15.941 -1.568)"/>
                  <path id="패스_22" data-name="패스 22" class="cls-5" d="M17.633,5.321,15.883,2.7l.438-.292,1.75,2.626Zm.656-.438-1.75-2.626.438-.292,1.75,2.626Zm.656-.438L17.2,1.82l.438-.292,1.75,2.626Z" transform="translate(-15.883 -1.529)"/>
                </g>
              </g>
            </g>
          </g>
          <g id="그룹_19" data-name="그룹 19" transform="translate(1.349 1.13)">
            <path id="패스_23" data-name="패스 23" class="cls-5" d="M5.482,10.394l.656-.438m8.205-5.47.766-.511m.656-.438.656-.438" transform="translate(-5.409 -2.991)"/>
            <path id="패스_24" data-name="패스 24" class="cls-4" d="M5.536,10.474l-.146-.219.656-.438.146.219ZM14.4,4.566l-.146-.219.766-.511.146.219Zm1.422-.948L15.674,3.4l.656-.438.146.219Z" transform="translate(-5.39 -2.961)"/>
          </g>
        </g>
      </g>
    </g>
    <g id="타원_3" data-name="타원 3" class="cls-8" transform="translate(16 63)">
      <circle class="cls-9" cx="8" cy="8" r="8"/>
      <circle class="cls-10" cx="8" cy="8" r="7.5"/>
    </g>
  </g>
</svg>
