<svg xmlns="http://www.w3.org/2000/svg" xmlns:xlink="http://www.w3.org/1999/xlink" width="16" height="16" viewBox="0 0 16 16">
  <defs>
    <style>
      .cls-1 {
        fill: #726bf8;
      }

      .cls-2 {
        clip-path: url(#clip-path);
      }

      .cls-3 {
        fill: #b22234;
      }

      .cls-4 {
        stroke: #fff;
        stroke-miterlimit: 10;
        stroke-width: 1.48px;
      }

      .cls-5 {
        fill: #3c3b6e;
      }

      .cls-6 {
        fill: #fff;
      }
    </style>
    <clipPath id="clip-path">
      <circle id="Ellipse_5_copy" data-name="Ellipse 5 copy" class="cls-1" cx="8" cy="8" r="8" transform="translate(16 105)"/>
    </clipPath>
  </defs>
  <g id="Ellipse_5_copy-2" data-name="Ellipse 5 copy" transform="translate(-16 -105)">
    <circle id="Ellipse_5_copy-3" data-name="Ellipse 5 copy" class="cls-1" cx="8" cy="8" r="8" transform="translate(16 105)"/>
    <g id="Clip" class="cls-2">
      <g id="미국" transform="translate(10 103)">
        <rect id="사각형_5" data-name="사각형 5" class="cls-3" width="37" height="19"/>
        <path id="패스_25" data-name="패스 25" class="cls-4" d="M0,2.192H37m0,2.923H0M0,8.038H37m0,2.923H0m0,2.923H37m0,2.923H0"/>
        <rect id="사각형_6" data-name="사각형 6" class="cls-5" width="14.8" height="10.231"/>
        <g id="그룹_70" data-name="그룹 70">
          <g id="s18">
            <g id="s9">
              <g id="s5">
                <g id="s4">
                  <path id="s" class="cls-6" d="M1.233.438,1.586,1.5.663.842H1.8L.881,1.5Z"/>
                  <g id="그룹_21" data-name="그룹 21">
                    <path id="s-2" data-name="s" class="cls-6" d="M1.233,2.485l.352,1.058L.663,2.889H1.8l-.922.654Z"/>
                  </g>
                  <g id="그룹_22" data-name="그룹 22">
                    <path id="s-3" data-name="s" class="cls-6" d="M1.233,4.531l.352,1.058L.663,4.935H1.8l-.922.654Z"/>
                  </g>
                  <g id="그룹_23" data-name="그룹 23">
                    <path id="s-4" data-name="s" class="cls-6" d="M1.233,6.577l.352,1.058L.663,6.981H1.8l-.922.654Z"/>
                  </g>
                </g>
                <g id="그룹_24" data-name="그룹 24">
                  <path id="s-5" data-name="s" class="cls-6" d="M1.233,8.623l.352,1.058L.663,9.027H1.8l-.922.654Z"/>
                </g>
              </g>
              <g id="그룹_28" data-name="그룹 28">
                <g id="s4-2" data-name="s4">
                  <path id="s-6" data-name="s" class="cls-6" d="M2.467,1.462l.352,1.058L1.9,1.866h1.14l-.922.654Z"/>
                  <g id="그룹_25" data-name="그룹 25">
                    <path id="s-7" data-name="s" class="cls-6" d="M2.467,3.508l.352,1.058L1.9,3.912h1.14l-.922.654Z"/>
                  </g>
                  <g id="그룹_26" data-name="그룹 26">
                    <path id="s-8" data-name="s" class="cls-6" d="M2.467,5.554l.352,1.058L1.9,5.958h1.14l-.922.654Z"/>
                  </g>
                  <g id="그룹_27" data-name="그룹 27">
                    <path id="s-9" data-name="s" class="cls-6" d="M2.467,7.6l.352,1.058L1.9,8h1.14l-.922.654Z"/>
                  </g>
                </g>
              </g>
            </g>
            <g id="그룹_37" data-name="그룹 37">
              <g id="s9-2" data-name="s9">
                <g id="s5-2" data-name="s5">
                  <g id="s4-3" data-name="s4">
                    <path id="s-10" data-name="s" class="cls-6" d="M3.7.438,4.052,1.5,3.13.842H4.27L3.348,1.5Z"/>
                    <g id="그룹_29" data-name="그룹 29">
                      <path id="s-11" data-name="s" class="cls-6" d="M3.7,2.485l.352,1.058L3.13,2.889H4.27l-.922.654Z"/>
                    </g>
                    <g id="그룹_30" data-name="그룹 30">
                      <path id="s-12" data-name="s" class="cls-6" d="M3.7,4.531l.352,1.058L3.13,4.935H4.27l-.922.654Z"/>
                    </g>
                    <g id="그룹_31" data-name="그룹 31">
                      <path id="s-13" data-name="s" class="cls-6" d="M3.7,6.577l.352,1.058L3.13,6.981H4.27l-.922.654Z"/>
                    </g>
                  </g>
                  <g id="그룹_32" data-name="그룹 32">
                    <path id="s-14" data-name="s" class="cls-6" d="M3.7,8.623l.352,1.058L3.13,9.027H4.27l-.922.654Z"/>
                  </g>
                </g>
                <g id="그룹_36" data-name="그룹 36">
                  <g id="s4-4" data-name="s4">
                    <path id="s-15" data-name="s" class="cls-6" d="M4.933,1.462l.352,1.058-.922-.654H5.5l-.922.654Z"/>
                    <g id="그룹_33" data-name="그룹 33">
                      <path id="s-16" data-name="s" class="cls-6" d="M4.933,3.508l.352,1.058-.922-.654H5.5l-.922.654Z"/>
                    </g>
                    <g id="그룹_34" data-name="그룹 34">
                      <path id="s-17" data-name="s" class="cls-6" d="M4.933,5.554l.352,1.058-.922-.654H5.5l-.922.654Z"/>
                    </g>
                    <g id="그룹_35" data-name="그룹 35">
                      <path id="s-18" data-name="s" class="cls-6" d="M4.933,7.6l.352,1.058L4.363,8H5.5l-.922.654Z"/>
                    </g>
                  </g>
                </g>
              </g>
            </g>
          </g>
          <g id="그룹_55" data-name="그룹 55">
            <g id="s18-2" data-name="s18">
              <g id="s9-3" data-name="s9">
                <g id="s5-3" data-name="s5">
                  <g id="s4-5" data-name="s4">
                    <path id="s-19" data-name="s" class="cls-6" d="M6.167.438,6.519,1.5,5.6.842h1.14L5.814,1.5Z"/>
                    <g id="그룹_38" data-name="그룹 38">
                      <path id="s-20" data-name="s" class="cls-6" d="M6.167,2.485l.352,1.058L5.6,2.889h1.14l-.922.654Z"/>
                    </g>
                    <g id="그룹_39" data-name="그룹 39">
                      <path id="s-21" data-name="s" class="cls-6" d="M6.167,4.531l.352,1.058L5.6,4.935h1.14l-.922.654Z"/>
                    </g>
                    <g id="그룹_40" data-name="그룹 40">
                      <path id="s-22" data-name="s" class="cls-6" d="M6.167,6.577l.352,1.058L5.6,6.981h1.14l-.922.654Z"/>
                    </g>
                  </g>
                  <g id="그룹_41" data-name="그룹 41">
                    <path id="s-23" data-name="s" class="cls-6" d="M6.167,8.623l.352,1.058L5.6,9.027h1.14l-.922.654Z"/>
                  </g>
                </g>
                <g id="그룹_45" data-name="그룹 45">
                  <g id="s4-6" data-name="s4">
                    <path id="s-24" data-name="s" class="cls-6" d="M7.4,1.462l.352,1.058L6.83,1.866H7.97l-.922.654Z"/>
                    <g id="그룹_42" data-name="그룹 42">
                      <path id="s-25" data-name="s" class="cls-6" d="M7.4,3.508l.352,1.058L6.83,3.912H7.97l-.922.654Z"/>
                    </g>
                    <g id="그룹_43" data-name="그룹 43">
                      <path id="s-26" data-name="s" class="cls-6" d="M7.4,5.554l.352,1.058L6.83,5.958H7.97l-.922.654Z"/>
                    </g>
                    <g id="그룹_44" data-name="그룹 44">
                      <path id="s-27" data-name="s" class="cls-6" d="M7.4,7.6l.352,1.058L6.83,8H7.97l-.922.654Z"/>
                    </g>
                  </g>
                </g>
              </g>
              <g id="그룹_54" data-name="그룹 54">
                <g id="s9-4" data-name="s9">
                  <g id="s5-4" data-name="s5">
                    <g id="s4-7" data-name="s4">
                      <path id="s-28" data-name="s" class="cls-6" d="M8.633.438,8.986,1.5,8.063.842H9.2L8.281,1.5Z"/>
                      <g id="그룹_46" data-name="그룹 46">
                        <path id="s-29" data-name="s" class="cls-6" d="M8.633,2.485l.352,1.058-.922-.654H9.2l-.922.654Z"/>
                      </g>
                      <g id="그룹_47" data-name="그룹 47">
                        <path id="s-30" data-name="s" class="cls-6" d="M8.633,4.531l.352,1.058-.922-.654H9.2l-.922.654Z"/>
                      </g>
                      <g id="그룹_48" data-name="그룹 48">
                        <path id="s-31" data-name="s" class="cls-6" d="M8.633,6.577l.352,1.058-.922-.654H9.2l-.922.654Z"/>
                      </g>
                    </g>
                    <g id="그룹_49" data-name="그룹 49">
                      <path id="s-32" data-name="s" class="cls-6" d="M8.633,8.623l.352,1.058-.922-.654H9.2l-.922.654Z"/>
                    </g>
                  </g>
                  <g id="그룹_53" data-name="그룹 53">
                    <g id="s4-8" data-name="s4">
                      <path id="s-33" data-name="s" class="cls-6" d="M9.867,1.462l.352,1.058L9.3,1.866h1.14l-.922.654Z"/>
                      <g id="그룹_50" data-name="그룹 50">
                        <path id="s-34" data-name="s" class="cls-6" d="M9.867,3.508l.352,1.058L9.3,3.912h1.14l-.922.654Z"/>
                      </g>
                      <g id="그룹_51" data-name="그룹 51">
                        <path id="s-35" data-name="s" class="cls-6" d="M9.867,5.554l.352,1.058L9.3,5.958h1.14l-.922.654Z"/>
                      </g>
                      <g id="그룹_52" data-name="그룹 52">
                        <path id="s-36" data-name="s" class="cls-6" d="M9.867,7.6l.352,1.058L9.3,8h1.14l-.922.654Z"/>
                      </g>
                    </g>
                  </g>
                </g>
              </g>
            </g>
          </g>
          <g id="그룹_64" data-name="그룹 64">
            <g id="s9-5" data-name="s9">
              <g id="s5-5" data-name="s5">
                <g id="s4-9" data-name="s4">
                  <path id="s-37" data-name="s" class="cls-6" d="M11.1.438,11.452,1.5,10.53.842h1.14l-.922.654Z"/>
                  <g id="그룹_56" data-name="그룹 56">
                    <path id="s-38" data-name="s" class="cls-6" d="M11.1,2.485l.352,1.058-.922-.654h1.14l-.922.654Z"/>
                  </g>
                  <g id="그룹_57" data-name="그룹 57">
                    <path id="s-39" data-name="s" class="cls-6" d="M11.1,4.531l.352,1.058-.922-.654h1.14l-.922.654Z"/>
                  </g>
                  <g id="그룹_58" data-name="그룹 58">
                    <path id="s-40" data-name="s" class="cls-6" d="M11.1,6.577l.352,1.058-.922-.654h1.14l-.922.654Z"/>
                  </g>
                </g>
                <g id="그룹_59" data-name="그룹 59">
                  <path id="s-41" data-name="s" class="cls-6" d="M11.1,8.623l.352,1.058-.922-.654h1.14l-.922.654Z"/>
                </g>
              </g>
              <g id="그룹_63" data-name="그룹 63">
                <g id="s4-10" data-name="s4">
                  <path id="s-42" data-name="s" class="cls-6" d="M12.333,1.462l.352,1.058-.922-.654H12.9l-.922.654Z"/>
                  <g id="그룹_60" data-name="그룹 60">
                    <path id="s-43" data-name="s" class="cls-6" d="M12.333,3.508l.352,1.058-.922-.654H12.9l-.922.654Z"/>
                  </g>
                  <g id="그룹_61" data-name="그룹 61">
                    <path id="s-44" data-name="s" class="cls-6" d="M12.333,5.554l.352,1.058-.922-.654H12.9l-.922.654Z"/>
                  </g>
                  <g id="그룹_62" data-name="그룹 62">
                    <path id="s-45" data-name="s" class="cls-6" d="M12.333,7.6l.352,1.058L11.763,8H12.9l-.922.654Z"/>
                  </g>
                </g>
              </g>
            </g>
          </g>
          <g id="그룹_69" data-name="그룹 69">
            <g id="s5-6" data-name="s5">
              <g id="s4-11" data-name="s4">
                <path id="s-46" data-name="s" class="cls-6" d="M13.567.438,13.919,1.5,13,.842h1.14l-.922.654Z"/>
                <g id="그룹_65" data-name="그룹 65">
                  <path id="s-47" data-name="s" class="cls-6" d="M13.567,2.485l.352,1.058L13,2.889h1.14l-.922.654Z"/>
                </g>
                <g id="그룹_66" data-name="그룹 66">
                  <path id="s-48" data-name="s" class="cls-6" d="M13.567,4.531l.352,1.058L13,4.935h1.14l-.922.654Z"/>
                </g>
                <g id="그룹_67" data-name="그룹 67">
                  <path id="s-49" data-name="s" class="cls-6" d="M13.567,6.577l.352,1.058L13,6.981h1.14l-.922.654Z"/>
                </g>
              </g>
              <g id="그룹_68" data-name="그룹 68">
                <path id="s-50" data-name="s" class="cls-6" d="M13.567,8.623l.352,1.058L13,9.027h1.14l-.922.654Z"/>
              </g>
            </g>
          </g>
        </g>
      </g>
    </g>
  </g>
</svg>
