<svg id="전화" xmlns="http://www.w3.org/2000/svg" xmlns:xlink="http://www.w3.org/1999/xlink" width="17.997" height="18" viewBox="0 0 17.997 18">
  <defs>
    <style>
      .cls-1 {
        fill: none;
      }

      .cls-2 {
        clip-path: url(#clip-path);
      }

      .cls-3 {
        fill: #726bf8;
      }
    </style>
    <clipPath id="clip-path">
      <rect id="사각형_18" data-name="사각형 18" class="cls-1" width="17.997" height="18"/>
    </clipPath>
  </defs>
  <g id="그룹_17" data-name="그룹 17" class="cls-2">
    <path id="패스_72" data-name="패스 72" class="cls-3" d="M14.42,18a7.58,7.58,0,0,1-3.536-1.2,22.988,22.988,0,0,1-5.553-4.154,21.059,21.059,0,0,1-4.17-5.552C-.319,4.4-.067,2.986.215,2.383A3.757,3.757,0,0,1,1.688.8a7.071,7.071,0,0,1,1.15-.61L2.949.144a1.073,1.073,0,0,1,.882-.08,2.566,2.566,0,0,1,.838.643,13.92,13.92,0,0,1,2.1,3.111,3.091,3.091,0,0,1,.411,1.274,2.008,2.008,0,0,1-.512,1.2c-.053.072-.105.141-.156.208-.3.4-.373.518-.328.725A7.6,7.6,0,0,0,8.036,9.975a7.327,7.327,0,0,0,2.72,1.811c.217.046.335-.024.75-.341.059-.045.12-.092.184-.139a2.025,2.025,0,0,1,1.216-.544h0a2.911,2.911,0,0,1,1.281.449,15.381,15.381,0,0,1,3.1,2.08,2.591,2.591,0,0,1,.645.837,1.079,1.079,0,0,1-.081.883c-.014.034-.031.07-.048.111a7.108,7.108,0,0,1-.614,1.148,3.759,3.759,0,0,1-1.583,1.47A2.721,2.721,0,0,1,14.42,18"/>
  </g>
</svg>
