<svg xmlns="http://www.w3.org/2000/svg" width="96" height="96" viewBox="0 0 96 96">
  <defs>
    <style>
      .cls-1 {
        fill: #eeedfe;
      }

      .cls-2 {
        fill: #726bf8;
      }
    </style>
  </defs>
  <g id="가입완료" transform="translate(-765 -739)">
    <circle id="타원_7" data-name="타원 7" class="cls-1" cx="48" cy="48" r="48" transform="translate(765 739)"/>
    <g id="Layer_2" data-name="Layer 2" transform="translate(787.999 762)">
      <path id="패스_10" data-name="패스 10" class="cls-2" d="M48.5,20.12H46.658a.479.479,0,0,0-.433.269,7.774,7.774,0,0,0-.54,5.284.477.477,0,0,0,.5.34H47.8a.468.468,0,0,0,.485-.448.46.46,0,0,0-.026-.169,5.24,5.24,0,0,1,.639-4.534.461.461,0,0,0-.1-.65.473.473,0,0,0-.3-.092Z" transform="translate(-4.005 -7.036)"/>
      <path id="패스_11" data-name="패스 11" class="cls-2" d="M23.681,12.94a.468.468,0,0,0,.482.452.475.475,0,0,0,.257-.085l1.53-1.029a.471.471,0,0,0,.207-.456,7.807,7.807,0,0,0-2.548-4.676.48.48,0,0,0-.612,0c-.252.206-.522.4-.8.6l-.513.331a.462.462,0,0,0-.113.648.481.481,0,0,0,.113.112,5.251,5.251,0,0,1,2,4.1Z" transform="translate(-4.005 -7.036)"/>
      <ellipse id="타원_1" data-name="타원 1" class="cls-2" cx="2.008" cy="1.994" rx="2.008" ry="1.994" transform="translate(28.599 1.514)"/>
      <ellipse id="타원_2" data-name="타원 2" class="cls-2" cx="2.008" cy="1.994" rx="2.008" ry="1.994" transform="translate(39.97 42.851)"/>
      <path id="패스_12" data-name="패스 12" class="cls-2" d="M45.667,43.449a1.841,1.841,0,0,0-.252-2.369L42.8,38.5l-20.14-20-2.593-2.593a1.874,1.874,0,0,0-2.386-.26,1.782,1.782,0,0,0-.389,2.5,2.081,2.081,0,0,0,.155.183l.748.742a2.706,2.706,0,0,0-.181.313L13.6,30.457a2.134,2.134,0,0,0,.306,2.137,3.558,3.558,0,0,1,.153,4.319,3.606,3.606,0,0,1-2.4,1.475,2.122,2.122,0,0,0-1.7,1.27L4.172,53.893A2.282,2.282,0,0,0,5.451,56.87a2.311,2.311,0,0,0,1.719,0l14.351-5.695a2.113,2.113,0,0,0,1.278-1.69A3.61,3.61,0,0,1,27.931,46.8a3.7,3.7,0,0,1,.693.438,2.172,2.172,0,0,0,2.152.26l11.038-4.391a2.578,2.578,0,0,0,.315-.179l.747.743a1.81,1.81,0,0,0,2.546.062A1.714,1.714,0,0,0,45.667,43.449ZM20.818,45.327a3.617,3.617,0,0,1-5.028-.8,3.56,3.56,0,0,1,.8-4.994,3.62,3.62,0,0,1,4.223,0,3.561,3.561,0,0,1,.806,4.994A3.6,3.6,0,0,1,20.818,45.327Z" transform="translate(-4.005 -7.036)"/>
      <ellipse id="타원_3" data-name="타원 3" class="cls-2" cx="0.918" cy="0.912" rx="0.918" ry="0.912" transform="translate(24.287 9.75)"/>
      <ellipse id="타원_4" data-name="타원 4" class="cls-2" cx="0.918" cy="0.912" rx="0.918" ry="0.912" transform="translate(42.293 24.056)"/>
      <ellipse id="타원_5" data-name="타원 5" class="cls-2" cx="0.918" cy="0.912" rx="0.918" ry="0.912" transform="translate(34.848 21.892)"/>
      <ellipse id="타원_6" data-name="타원 6" class="cls-2" cx="0.918" cy="0.912" rx="0.918" ry="0.912" transform="translate(4.48 9.75)"/>
      <path id="패스_13" data-name="패스 13" class="cls-2" d="M37.627,22.651a.561.561,0,0,0,0,.8l.469.465a.57.57,0,0,0,.8,0l.468-.465a.569.569,0,0,1,.8,0l.468.465a.572.572,0,0,0,.8,0l.468-.465a.561.561,0,0,0,0-.8l-.459-.483a.561.561,0,0,1,0-.8l.468-.465a.561.561,0,0,0,0-.8l-.468-.465a.572.572,0,0,0-.8,0l-.468.465a.569.569,0,0,1-.8,0l-.468-.465a.57.57,0,0,0-.8,0l-.469.465a.561.561,0,0,0,0,.8l.469.465a.561.561,0,0,1,0,.8Z" transform="translate(-4.005 -7.036)"/>
      <path id="패스_14" data-name="패스 14" class="cls-2" d="M48.719,10.016h-.468a.4.4,0,0,1-.4-.366v-.5a.4.4,0,0,0-.4-.394h-.477a.4.4,0,0,0-.4.394v.5a.4.4,0,0,1-.4.393h-.468a.4.4,0,0,0-.4.393V10.9a.4.4,0,0,0,.4.394h.468a.4.4,0,0,1,.4.393v.465a.4.4,0,0,0,.4.394h.468a.4.4,0,0,0,.4-.394v-.474a.394.394,0,0,1,.4-.393h.468a.394.394,0,0,0,.4-.393v-.474a.394.394,0,0,0-.386-.4Z" transform="translate(-4.005 -7.036)"/>
      <path id="패스_15" data-name="패스 15" class="cls-2" d="M53.617,44.9h-.468a.4.4,0,0,1-.4-.394v-.465a.4.4,0,0,0-.378-.411h-.5a.4.4,0,0,0-.4.393v.5a.394.394,0,0,1-.4.393H50.6a.4.4,0,0,0-.4.394v.465a.394.394,0,0,0,.4.393h.468a.4.4,0,0,1,.4.394v.465a.4.4,0,0,0,.4.393h.469a.4.4,0,0,0,.4-.393v-.465a.4.4,0,0,1,.4-.394h.468a.394.394,0,0,0,.4-.393V45.31a.394.394,0,0,0-.377-.411Z" transform="translate(-4.005 -7.036)"/>
      <path id="패스_16" data-name="패스 16" class="cls-2" d="M6.089,27.354a.391.391,0,0,0-.007.556l.007.007.333.331a.4.4,0,0,0,.561.007l.007-.007.333-.331a.4.4,0,0,1,.56-.007l.007.007.333.331a.4.4,0,0,0,.56.007l.007-.007.333-.331a.391.391,0,0,0,.007-.556l-.007-.007-.333-.331a.391.391,0,0,1-.007-.556l.007-.007.333-.331a.391.391,0,0,0,.007-.556l-.007-.007-.333-.331a.4.4,0,0,0-.56-.007l-.007.007-.333.331a.4.4,0,0,1-.56.007l-.007-.007-.333-.331a.4.4,0,0,0-.561-.007l-.007.007-.333.331a.391.391,0,0,0-.007.556l.007.007.333.331a.391.391,0,0,1,.007.556l-.007.007Z" transform="translate(-4.005 -7.036)"/>
    </g>
  </g>
</svg>
