<svg xmlns="http://www.w3.org/2000/svg" width="16" height="16" viewBox="0 0 16 16">
  <defs>
    <style>
      .cls-1 {
        fill: #726BF8;
      }
    </style>
  </defs>
  <g id="search" transform="translate(-1640.521 -1259.703)">
    <path id="패스_4" data-name="패스 4" class="cls-1" d="M501.005-63.018a6.57,6.57,0,0,1-6.484-6.639,6.571,6.571,0,0,1,6.484-6.64,6.571,6.571,0,0,1,6.484,6.64A6.57,6.57,0,0,1,501.005-63.018Zm0-11.47a4.762,4.762,0,0,0-4.678,4.831,4.762,4.762,0,0,0,4.678,4.831,4.761,4.761,0,0,0,4.678-4.831A4.761,4.761,0,0,0,501.005-74.488Z" transform="translate(1146 1336)"/>
    <path id="패스_5" data-name="패스 5" class="cls-1" d="M509.227-60.3l-4.742-4.873,1.294-1.262,4.742,4.873Z" transform="translate(1146 1336)"/>
  </g>
</svg>
