<svg xmlns="http://www.w3.org/2000/svg" xmlns:xlink="http://www.w3.org/1999/xlink" width="252" height="1292" viewBox="0 0 252 1292">
  <defs>
    <style>
      .cls-1 {
        fill: none;
      }

      .cls-2 {
        fill: #888;
      }

      .cls-3 {
        fill: #eee;
      }

      .cls-4 {
        fill: #d8d6f8;
      }

      .cls-5 {
        fill: #7871f8;
      }

      .cls-11, .cls-17, .cls-6 {
        fill: #fff;
      }

      .cls-7 {
        clip-path: url(#clip-path);
      }

      .cls-8 {
        fill: #111;
      }

      .cls-11, .cls-8 {
        font-size: 16px;
      }

      .cls-11, .cls-17, .cls-8 {
        font-family: NotoSansKR-Medium, Noto Sans KR;
        font-weight: 500;
        letter-spacing: -0.025em;
      }

      .cls-9 {
        clip-path: url(#clip-path-2);
      }

      .cls-10 {
        clip-path: url(#clip-path-3);
      }

      .cls-12 {
        clip-path: url(#clip-path-8);
      }

      .cls-13 {
        clip-path: url(#clip-path-9);
      }

      .cls-14 {
        clip-path: url(#clip-path-10);
      }

      .cls-15 {
        clip-path: url(#clip-path-13);
      }

      .cls-16 {
        fill: #726bf8;
      }

      .cls-17 {
        font-size: 14px;
      }

      .cls-18 {
        filter: url(#Rectangle_23_copy);
      }
    </style>
    <filter id="Rectangle_23_copy" x="0" y="0" width="252" height="1292" filterUnits="userSpaceOnUse">
      <feOffset dy="6" input="SourceAlpha"/>
      <feGaussianBlur stdDeviation="12" result="blur"/>
      <feFlood flood-opacity="0.122"/>
      <feComposite operator="in" in2="blur"/>
      <feComposite in="SourceGraphic"/>
    </filter>
    <clipPath id="clip-path">
      <rect id="사각형_58" data-name="사각형 58" class="cls-1" width="48" height="40"/>
    </clipPath>
    <clipPath id="clip-path-2">
      <rect id="사각형_59" data-name="사각형 59" class="cls-1" width="36" height="48"/>
    </clipPath>
    <clipPath id="clip-path-3">
      <rect id="사각형_60" data-name="사각형 60" class="cls-1" width="12" height="20"/>
    </clipPath>
    <clipPath id="clip-path-8">
      <rect id="사각형_69" data-name="사각형 69" class="cls-1" width="48" height="48"/>
    </clipPath>
    <clipPath id="clip-path-9">
      <rect id="사각형_70" data-name="사각형 70" class="cls-1" width="38" height="48"/>
    </clipPath>
    <clipPath id="clip-path-10">
      <rect id="사각형_71" data-name="사각형 71" class="cls-1" width="27" height="48"/>
    </clipPath>
    <clipPath id="clip-path-13">
      <rect id="사각형_76" data-name="사각형 76" class="cls-1" width="48" height="38"/>
    </clipPath>
  </defs>
  <g id="플랫폼안내_비회원_세로" transform="translate(10 4)">
    <g class="cls-18" transform="matrix(1, 0, 0, 1, -10, -4)">
      <path id="Rectangle_23_copy-2" data-name="Rectangle 23 copy" class="cls-3" d="M206,50V1222a24,24,0,0,1-24,24H50a24,24,0,0,1-24-24V50A24,24,0,0,1,50,26H182A24,24,0,0,1,206,50Z" transform="translate(10 4)"/>
    </g>
    <path id="Rectangle_21_copy_9" data-name="Rectangle 21 copy 9" class="cls-4" d="M196,420V852a24,24,0,0,1-24,24H60a24,24,0,0,1-24-24V420a24,24,0,0,1,24-24H172A24,24,0,0,1,196,420Z"/>
    <path id="Rectangle_21_copy_9_-_윤곽선" data-name="Rectangle 21 copy 9 - 윤곽선" class="cls-5" d="M60,398a21.98,21.98,0,0,0-22,22V852a21.98,21.98,0,0,0,22,22H172a21.98,21.98,0,0,0,22-22V420a21.98,21.98,0,0,0-22-22H60m0-2H172a24,24,0,0,1,24,24V852a24,24,0,0,1-24,24H60a24,24,0,0,1-24-24V420A24,24,0,0,1,60,396Z"/>
    <rect id="Rectangle_21_copy" data-name="Rectangle 21 copy" class="cls-6" width="120" height="120" rx="16" transform="translate(56 56)"/>
    <g id="Vector_Smart_Object" data-name="Vector Smart Object" transform="translate(92 84)">
      <g id="그룹_97" data-name="그룹 97">
        <g id="그룹_96" data-name="그룹 96" class="cls-7">
          <path id="패스_125" data-name="패스 125" class="cls-5" d="M44.643,9.492,25.939.44a4.49,4.49,0,0,0-3.878,0L3.357,9.492A5.828,5.828,0,0,0,0,14.748V34.122A5.984,5.984,0,0,0,6.072,40H41.928A5.984,5.984,0,0,0,48,34.122V14.748a5.828,5.828,0,0,0-3.357-5.256M23.612,3.444a.9.9,0,0,1,.776,0l18.148,8.78L24.107,21.145a.9.9,0,0,1-.776,0L5.18,12.364Z"/>
        </g>
      </g>
    </g>
    <text id="초대장" class="cls-8" transform="translate(94.269 154.874)"><tspan x="0" y="0">초대장</tspan></text>
    <rect id="Rectangle_21_copy_5" data-name="Rectangle 21 copy 5" class="cls-6" width="120" height="120" rx="16" transform="translate(56 216)"/>
    <g id="Vector_Smart_Object-2" data-name="Vector Smart Object" transform="translate(98 240)">
      <g id="그룹_99" data-name="그룹 99">
        <g id="그룹_98" data-name="그룹 98" class="cls-9">
          <path id="패스_126" data-name="패스 126" class="cls-5" d="M29.454,3.2H28.287a.819.819,0,0,1-.761-.508A4.312,4.312,0,0,0,23.509,0H12.49A4.313,4.313,0,0,0,8.473,2.692a.818.818,0,0,1-.761.508H6.545A6.473,6.473,0,0,0,0,9.6v32A6.474,6.474,0,0,0,6.545,48H29.454A6.475,6.475,0,0,0,36,41.6V9.6a6.474,6.474,0,0,0-6.546-6.4M11.467,6.4H24.532a1.6,1.6,0,1,1,0,3.2H11.467a1.6,1.6,0,1,1,0-3.2m15.1,31.635H9.428a1.714,1.714,0,0,1,0-3.428H26.571a1.714,1.714,0,0,1,0,3.428m0-8.247H9.428a1.715,1.715,0,0,1,0-3.429H26.571a1.715,1.715,0,0,1,0,3.429m0-8.248H9.428a1.715,1.715,0,0,1,0-3.429H26.571a1.715,1.715,0,0,1,0,3.429"/>
        </g>
      </g>
    </g>
    <text id="약관동의" class="cls-8" transform="translate(87.269 314.874)"><tspan x="0" y="0">약관동의</tspan></text>
    <g id="Vector_Smart_Object_copy_5" data-name="Vector Smart Object copy 5">
      <g id="Vector_Smart_Object_copy_5-2" data-name="Vector Smart Object copy 5" transform="translate(126 190) rotate(90)">
        <g id="그룹_101" data-name="그룹 101">
          <g id="그룹_100" data-name="그룹 100" class="cls-10">
            <path id="패스_127" data-name="패스 127" class="cls-5" d="M1.142,20a1.19,1.19,0,0,1-.8-.3A.994.994,0,0,1,.33,18.21L9.254,9.888.57,1.79A.994.994,0,0,1,.58.3,1.213,1.213,0,0,1,2.194.312l9.477,8.837a.994.994,0,0,1,0,1.478L1.954,19.688A1.188,1.188,0,0,1,1.142,20"/>
          </g>
        </g>
      </g>
      <path id="Color_Overlay" data-name="Color Overlay" class="cls-2" d="M116.072,202a1.011,1.011,0,0,1-.7-.328l-9.061-9.717a1.214,1.214,0,0,1-.009-1.614.994.994,0,0,1,1.488-.01l8.321,8.924,8.1-8.684a.994.994,0,0,1,1.487.01,1.193,1.193,0,0,1,.3.8v0a1.185,1.185,0,0,1-.312.81l-8.837,9.477a1.011,1.011,0,0,1-.7.328Z"/>
    </g>
    <g id="Vector_Smart_Object_copy_8" data-name="Vector Smart Object copy 8">
      <g id="Vector_Smart_Object_copy_8-2" data-name="Vector Smart Object copy 8" transform="translate(126 350) rotate(90)">
        <g id="그룹_105" data-name="그룹 105">
          <g id="그룹_104" data-name="그룹 104" class="cls-10">
            <path id="패스_129" data-name="패스 129" class="cls-5" d="M1.142,20a1.19,1.19,0,0,1-.8-.3A.994.994,0,0,1,.33,18.21L9.254,9.888.57,1.79A.994.994,0,0,1,.58.3,1.213,1.213,0,0,1,2.194.312l9.477,8.837a.994.994,0,0,1,0,1.478L1.954,19.688A1.188,1.188,0,0,1,1.142,20"/>
          </g>
        </g>
      </g>
      <path id="Color_Overlay-2" data-name="Color Overlay" class="cls-2" d="M116.072,362a1.011,1.011,0,0,1-.7-.329l-9.061-9.717a1.214,1.214,0,0,1-.009-1.614.994.994,0,0,1,1.488-.01l8.321,8.923,8.1-8.684a.994.994,0,0,1,1.487.01,1.192,1.192,0,0,1,.3.8v0a1.185,1.185,0,0,1-.312.81l-8.837,9.477a1.011,1.011,0,0,1-.7.329Z"/>
    </g>
    <g id="Vector_Smart_Object_copy_9" data-name="Vector Smart Object copy 9">
      <g id="Vector_Smart_Object_copy_9-2" data-name="Vector Smart Object copy 9" transform="translate(126 900) rotate(90)">
        <g id="그룹_109" data-name="그룹 109">
          <g id="그룹_108" data-name="그룹 108" class="cls-10">
            <path id="패스_131" data-name="패스 131" class="cls-5" d="M1.142,20a1.19,1.19,0,0,1-.8-.3A.994.994,0,0,1,.33,18.21L9.254,9.888.57,1.79A.994.994,0,0,1,.58.3,1.213,1.213,0,0,1,2.194.312l9.477,8.837a.994.994,0,0,1,0,1.478L1.954,19.688A1.188,1.188,0,0,1,1.142,20"/>
          </g>
        </g>
      </g>
      <path id="Color_Overlay-3" data-name="Color Overlay" class="cls-2" d="M116.072,912a1.01,1.01,0,0,1-.7-.328l-9.061-9.717a1.214,1.214,0,0,1-.009-1.614.994.994,0,0,1,1.488-.01l8.321,8.924,8.1-8.684a.994.994,0,0,1,1.487.01,1.192,1.192,0,0,1,.3.8v0a1.185,1.185,0,0,1-.312.81l-8.837,9.477a1.01,1.01,0,0,1-.7.328Z"/>
    </g>
    <g id="Vector_Smart_Object_copy_5-3" data-name="Vector Smart Object copy 5">
      <g id="Vector_Smart_Object_copy_5-4" data-name="Vector Smart Object copy 5" transform="translate(125 1070) rotate(90)">
        <g id="그룹_113" data-name="그룹 113">
          <g id="그룹_112" data-name="그룹 112" class="cls-10">
            <path id="패스_133" data-name="패스 133" class="cls-5" d="M1.142,20a1.19,1.19,0,0,1-.8-.3A.994.994,0,0,1,.33,18.21L9.254,9.888.57,1.79A.994.994,0,0,1,.58.3,1.213,1.213,0,0,1,2.194.312l9.477,8.837a.994.994,0,0,1,0,1.478L1.954,19.688A1.188,1.188,0,0,1,1.142,20"/>
          </g>
        </g>
      </g>
      <path id="Color_Overlay-4" data-name="Color Overlay" class="cls-2" d="M115.072,1082a1.011,1.011,0,0,1-.7-.328l-9.061-9.717a1.214,1.214,0,0,1-.009-1.614.994.994,0,0,1,1.488-.01l8.321,8.923,8.1-8.684a.994.994,0,0,1,1.487.01,1.192,1.192,0,0,1,.3.8v0a1.185,1.185,0,0,1-.312.81l-8.837,9.477a1.011,1.011,0,0,1-.7.328Z"/>
    </g>
    <rect id="Rectangle_21_copy_5-2" data-name="Rectangle 21 copy 5" class="cls-5" width="120" height="120" rx="16" transform="translate(56 1096)"/>
    <g id="Vector_Smart_Object-3" data-name="Vector Smart Object" transform="translate(92 1124)">
      <g id="그룹_117" data-name="그룹 117">
        <g id="그룹_116" data-name="그룹 116" class="cls-7">
          <path id="패스_135" data-name="패스 135" class="cls-6" d="M12.368,2.891A10,10,0,0,1,19.608,0a9.966,9.966,0,0,1,7.224,2.909,9.116,9.116,0,0,1,2.548,7.2c-.425,5.456-4.8,9.9-9.772,9.9s-9.355-4.439-9.774-9.9a9.141,9.141,0,0,1,2.534-7.212"/>
          <path id="패스_136" data-name="패스 136" class="cls-6" d="M19.176,29.246a5.406,5.406,0,0,1,1.689-3.86,5.783,5.783,0,0,1,3.871-1.569h.124a5.66,5.66,0,0,1,3.958,1.649c.039.039.068.069,3.819,4.013L34.049,27.8a17.978,17.978,0,0,0-2.073-1.545,23.424,23.424,0,0,0-12.368-3.393A23.415,23.415,0,0,0,7.24,26.25,15.277,15.277,0,0,0,.059,36.407a3.029,3.029,0,0,0,.677,2.6A2.988,2.988,0,0,0,3.017,40H27.248L20.73,33.107a5.367,5.367,0,0,1-1.554-3.861"/>
          <path id="패스_137" data-name="패스 137" class="cls-6" d="M47.211,20.819a2.255,2.255,0,0,0-3.121.265L32.8,34.543s-6.372-6.7-6.415-6.743a2.23,2.23,0,0,0-1.559-.651,2.349,2.349,0,0,0-1.573.618,2.13,2.13,0,0,0-.044,3.05l8.007,8.466A2.261,2.261,0,0,0,32.9,40a2.234,2.234,0,0,0,1.661-.772L47.482,23.869a2.134,2.134,0,0,0-.271-3.05"/>
        </g>
      </g>
    </g>
    <text id="참석" class="cls-11" transform="translate(101.269 1194.874)"><tspan x="0" y="0">참석</tspan></text>
    <rect id="Rectangle_21_copy_5-3" data-name="Rectangle 21 copy 5" class="cls-6" width="120" height="120" rx="16" transform="translate(56 936)"/>
    <rect id="Rectangle_21_copy_7" data-name="Rectangle 21 copy 7" class="cls-6" width="120" height="120" rx="16" transform="translate(56 736)"/>
    <g id="Vector_Smart_Object-4" data-name="Vector Smart Object" transform="translate(92 760)">
      <g id="그룹_119" data-name="그룹 119">
        <g id="그룹_118" data-name="그룹 118" class="cls-12">
          <path id="패스_138" data-name="패스 138" class="cls-5" d="M24,0A24,24,0,1,0,48,24,24,24,0,0,0,24,0"/>
          <path id="패스_139" data-name="패스 139" class="cls-6" d="M34.722,16.87a1.949,1.949,0,0,0-2.742.238L22.06,29.2s-5.6-6.022-5.636-6.06a1.932,1.932,0,0,0-1.368-.585,2.042,2.042,0,0,0-1.382.555,1.946,1.946,0,0,0-.039,2.742l7.033,7.608a1.967,1.967,0,0,0,1.478.645,1.946,1.946,0,0,0,1.461-.695l11.352-13.8a1.949,1.949,0,0,0-.237-2.741"/>
        </g>
      </g>
    </g>
    <text id="완료안내" class="cls-8" transform="translate(87.269 834.874)"><tspan x="0" y="0">완료안내</tspan></text>
    <rect id="Rectangle_21_copy_6" data-name="Rectangle 21 copy 6" class="cls-6" width="120" height="120" rx="16" transform="translate(56 576)"/>
    <g id="Vector_Smart_Object-5" data-name="Vector Smart Object" transform="translate(97 600)">
      <g id="그룹_121" data-name="그룹 121">
        <g id="그룹_120" data-name="그룹 120" class="cls-13">
          <path id="패스_140" data-name="패스 140" class="cls-5" d="M37.568,20.572H22.455a5.163,5.163,0,0,1-5.182-5.143v-15A.43.43,0,0,0,16.842,0H6.91A6.883,6.883,0,0,0,0,6.857V41.143A6.883,6.883,0,0,0,6.91,48H31.092A6.883,6.883,0,0,0,38,41.143V21a.43.43,0,0,0-.432-.428M27.637,37.714H10.364a1.714,1.714,0,1,1,0-3.428H27.637a1.714,1.714,0,1,1,0,3.428m0-8.571H10.364a1.715,1.715,0,1,1,0-3.429H27.637a1.715,1.715,0,1,1,0,3.429"/>
          <path id="패스_141" data-name="패스 141" class="cls-5" d="M36.62,16.778,21.1,1.37a.217.217,0,0,0-.369.151V15.429a1.721,1.721,0,0,0,1.728,1.714H36.468a.214.214,0,0,0,.215-.215.211.211,0,0,0-.062-.15"/>
        </g>
      </g>
    </g>
    <text id="정보입력" class="cls-8" transform="translate(87.269 674.874)"><tspan x="0" y="0">정보입력</tspan></text>
    <rect id="Rectangle_21_copy_6-2" data-name="Rectangle 21 copy 6" class="cls-6" width="120" height="120" rx="16" transform="translate(56 416)"/>
    <g id="Vector_Smart_Object-6" data-name="Vector Smart Object" transform="translate(102 440)">
      <g id="그룹_123" data-name="그룹 123">
        <g id="그룹_122" data-name="그룹 122" class="cls-14">
          <path id="패스_142" data-name="패스 142" class="cls-5" d="M21,0H6A6,6,0,0,0,0,6V42a6,6,0,0,0,6,6H21a6,6,0,0,0,6-6V6a6,6,0,0,0-6-6m3,42a3,3,0,0,1-3,3H6a3,3,0,0,1-3-3V6A3,3,0,0,1,6,3H7.064a.744.744,0,0,1,.684.445A3,3,0,0,0,10.5,5.25h6a3,3,0,0,0,2.752-1.805A.744.744,0,0,1,19.936,3H21a3,3,0,0,1,3,3Z"/>
          <path id="패스_143" data-name="패스 143" class="cls-5" d="M21,0H6A6,6,0,0,0,0,6V42a6,6,0,0,0,6,6H21a6,6,0,0,0,6-6V6a6,6,0,0,0-6-6m3,42a3,3,0,0,1-3,3H6a3,3,0,0,1-3-3V6A3,3,0,0,1,6,3H7.064a.744.744,0,0,1,.684.445A3,3,0,0,0,10.5,5.25h6a3,3,0,0,0,2.752-1.805A.744.744,0,0,1,19.936,3H21a3,3,0,0,1,3,3Z"/>
          <path id="패스_144" data-name="패스 144" class="cls-5" d="M19,20.669a1.024,1.024,0,0,0-1.44.125l-5.215,6.358s-2.942-3.165-2.963-3.185a1.011,1.011,0,0,0-.72-.307,1.071,1.071,0,0,0-.726.291,1.022,1.022,0,0,0-.019,1.441l3.7,4a1.036,1.036,0,0,0,.777.338,1.017,1.017,0,0,0,.767-.365l5.968-7.255A1.024,1.024,0,0,0,19,20.669"/>
          <path id="패스_145" data-name="패스 145" class="cls-5" d="M18.346,20.18h0a1.272,1.272,0,0,1,.973,2.091l-5.966,7.253a1.269,1.269,0,0,1-.957.456,1.283,1.283,0,0,1-.966-.42l-3.692-4a1.253,1.253,0,0,1-.357-.893,1.266,1.266,0,0,1,.382-.9,1.317,1.317,0,0,1,.894-.362h.008a1.26,1.26,0,0,1,.9.382h0c.037.038.315.337,2.773,2.98l5.033-6.137A1.271,1.271,0,0,1,18.346,20.18Zm-5.953,9.3a.766.766,0,0,0,.575-.276l5.967-7.253a.772.772,0,0,0-.589-1.271h0a.771.771,0,0,0-.592.275L12.36,27.532l-.195-.21c-.994-1.069-2.885-3.1-2.958-3.18h0a.764.764,0,0,0-.539-.232.819.819,0,0,0-.553.22.77.77,0,0,0-.232.546.756.756,0,0,0,.216.541l.005.006,3.7,4A.788.788,0,0,0,12.393,29.48Z"/>
        </g>
      </g>
    </g>
    <text id="본인인증" class="cls-8" transform="translate(87.269 514.874)"><tspan x="0" y="0">본인인증</tspan></text>
    <g id="Vector_Smart_Object_copy_6" data-name="Vector Smart Object copy 6">
      <g id="Vector_Smart_Object_copy_6-2" data-name="Vector Smart Object copy 6" transform="translate(126 550) rotate(90)">
        <g id="그룹_125" data-name="그룹 125">
          <g id="그룹_124" data-name="그룹 124" class="cls-10">
            <path id="패스_146" data-name="패스 146" class="cls-5" d="M1.142,20a1.19,1.19,0,0,1-.8-.3A.994.994,0,0,1,.33,18.21L9.254,9.888.57,1.79A.994.994,0,0,1,.58.3,1.213,1.213,0,0,1,2.194.312l9.477,8.837a.994.994,0,0,1,0,1.478L1.954,19.688A1.188,1.188,0,0,1,1.142,20"/>
          </g>
        </g>
      </g>
      <path id="Color_Overlay-5" data-name="Color Overlay" class="cls-2" d="M116.072,562a1.011,1.011,0,0,1-.7-.328l-9.061-9.717a1.214,1.214,0,0,1-.009-1.614.994.994,0,0,1,1.488-.01l8.321,8.924,8.1-8.684a.994.994,0,0,1,1.487.01,1.192,1.192,0,0,1,.3.8v0a1.185,1.185,0,0,1-.312.81l-8.837,9.477a1.011,1.011,0,0,1-.7.328Z"/>
    </g>
    <g id="Vector_Smart_Object_copy_7" data-name="Vector Smart Object copy 7">
      <g id="Vector_Smart_Object_copy_7-2" data-name="Vector Smart Object copy 7" transform="translate(126 710) rotate(90)">
        <g id="그룹_129" data-name="그룹 129">
          <g id="그룹_128" data-name="그룹 128" class="cls-10">
            <path id="패스_148" data-name="패스 148" class="cls-5" d="M1.142,20a1.19,1.19,0,0,1-.8-.3A.994.994,0,0,1,.33,18.21L9.254,9.888.57,1.79A.994.994,0,0,1,.58.3,1.213,1.213,0,0,1,2.194.312l9.477,8.837a.994.994,0,0,1,0,1.478L1.954,19.688A1.188,1.188,0,0,1,1.142,20"/>
          </g>
        </g>
      </g>
      <path id="Color_Overlay-6" data-name="Color Overlay" class="cls-2" d="M116.072,722a1.011,1.011,0,0,1-.7-.328l-9.061-9.717a1.214,1.214,0,0,1-.009-1.614.994.994,0,0,1,1.488-.01l8.321,8.923,8.1-8.684a.994.994,0,0,1,1.487.01,1.192,1.192,0,0,1,.3.8v0a1.185,1.185,0,0,1-.312.81l-8.837,9.477a1.011,1.011,0,0,1-.7.328Z"/>
    </g>
    <g id="Vector_Smart_Object-7" data-name="Vector Smart Object" transform="translate(92 964)">
      <g id="그룹_133" data-name="그룹 133">
        <g id="그룹_132" data-name="그룹 132" class="cls-15">
          <path id="패스_150" data-name="패스 150" class="cls-5" d="M42,0H6A6.03,6.03,0,0,0,0,6.046V31.955A6.029,6.029,0,0,0,6,38H42a6.028,6.028,0,0,0,6-6.045V6.046A6.029,6.029,0,0,0,42,0M40.481,10,25.052,22.091a1.7,1.7,0,0,1-2.1,0L7.52,10a1.736,1.736,0,0,1-.327-2.421,1.706,1.706,0,0,1,2.4-.328l.028.022L24,18.539,38.377,7.273a1.705,1.705,0,0,1,2.408.278,1.736,1.736,0,0,1-.275,2.427Z"/>
        </g>
      </g>
    </g>
    <text id="참석안내" class="cls-8" transform="translate(87.269 1034.874)"><tspan x="0" y="0">참석안내</tspan></text>
    <rect id="Rectangle_22" data-name="Rectangle 22" class="cls-16" width="120" height="32" rx="10" transform="translate(55 374)"/>
    <text id="사전등록구간" class="cls-17" transform="translate(77.35 395.096)"><tspan x="0" y="0">사전등록구간</tspan></text>
  </g>
</svg>
