<svg xmlns="http://www.w3.org/2000/svg" width="39.999" height="39.999" viewBox="0 0 39.999 39.999">
  <defs>
    <style>
      .cls-1 {
        fill: #aaa;
      }
    </style>
  </defs>
  <path id="국외" class="cls-1" d="M-747.574,1.254a20,20,0,0,0-28.284,0,20,20,0,0,0,0,28.284,20,20,0,0,0,28.284,0,20,20,0,0,0,0-28.284ZM-778.859,15.4a17.166,17.166,0,0,1,.6-4.492c.656,1.411,1.608,2.63,2.255,4.077.836,1.861,3.083,1.344,4.075,2.975.88,1.447-.06,3.277.6,4.792.479,1.1,1.607,1.339,2.386,2.143.8.81.778,1.921.9,2.978a27.267,27.267,0,0,0,.665,3.685.04.04,0,0,0,.007.028A17.181,17.181,0,0,1-778.859,15.4Zm17.143,17.143a17.312,17.312,0,0,1-2.857-.239c.01-.242.014-.468.038-.625a7.662,7.662,0,0,1,1.887-3.871c.947-1.048,2.245-1.757,3.045-2.946a5.291,5.291,0,0,0,.7-4.08c-.476-2-3.2-2.672-4.666-3.759-.844-.625-1.6-1.591-2.7-1.669a7.34,7.34,0,0,1-1.444-.057,3.325,3.325,0,0,0-1.324-.3c-.924.121-1.507,1.109-2.5.975a3.041,3.041,0,0,1-2.126-2.126c-.275-1.153.637-1.528,1.615-1.63a2.768,2.768,0,0,1,1.258.06c.516.192.76.7,1.223.952.869.477,1.045-.285.912-1.056-.2-1.155-.432-1.626.6-2.421.714-.549,1.325-.945,1.21-1.93-.067-.578-.384-.84-.089-1.416A3.7,3.7,0,0,1-765.7,5.3c1.035-.675,4.433-.625,3.045-2.515-.408-.554-1.161-1.545-1.875-1.681-.893-.169-1.289.828-1.912,1.267-.642.454-1.894.97-2.538.268-.866-.946.574-1.256.893-1.916a1.293,1.293,0,0,0-.248-1.139q.483-.2.982-.377a1.4,1.4,0,0,0,.714.268c.6.039,1.161-.284,1.682.123.579.446,1,1.01,1.764,1.15A1.479,1.479,0,0,0-761.482-.31a3.19,3.19,0,0,0-.107-1.429,17.043,17.043,0,0,1,9.375,2.876.82.82,0,0,0-.656.063c-.542.251-1.309.892-1.373,1.528-.072.722.992.823,1.5.823.758,0,1.527-.339,1.283-1.216a2.445,2.445,0,0,0-.484-1.015,17.172,17.172,0,0,1,1.607,1.263l-.024.024a7.987,7.987,0,0,0-1.464,1.611,1.409,1.409,0,0,1-1.03.8,1.978,1.978,0,0,0-.825.275c-.646.509-.279,1.732.334,2.1a2.1,2.1,0,0,0,2.506-.416c.456-.518.725-1.417,1.546-1.416a1.375,1.375,0,0,1,.966.394c.339.351.272.68.344,1.119.128.781.816.357,1.235-.036a17.009,17.009,0,0,1,.825,1.676c-.461.663-.827,1.386-1.935.613-.663-.463-1.071-1.136-1.9-1.345a5.362,5.362,0,0,0-2.192.132,4.275,4.275,0,0,0-2.4.823c-.6.6-.916,1.394-1.554,1.994-1.233,1.16-1.754,2.427-.955,4.068a4.178,4.178,0,0,0,4.107,2.322c1.7-.114,3.471-1.1,3.422,1.373a6.245,6.245,0,0,0,.434,2.3,8.91,8.91,0,0,1,.289,2.251,14.093,14.093,0,0,0,.424,2.685,17.121,17.121,0,0,1-13.532,6.609Z" transform="translate(781.716 4.604)"/>
</svg>
