<svg xmlns="http://www.w3.org/2000/svg" width="30" height="50" viewBox="0 0 30 50">
  <defs>
    <style>
      .cls-1 {
        fill: #aaa;
        fill-rule: evenodd;
      }
    </style>
  </defs>
  <g id="국내" transform="translate(0.008 0.012)">
    <path id="패스_1" data-name="패스 1" class="cls-1" d="M-458.6-242.817a.411.411,0,0,0-.125-.3.419.419,0,0,0-.3-.118c-.137-.01-.357-.084-.385-.173a.633.633,0,0,1,.053-.531,3.03,3.03,0,0,0,.43-.764.522.522,0,0,1,.3-.241c.291-.057.593-.049.763-.361.027-.05.178-.049.271-.048a5.409,5.409,0,0,0,.683.021c.317-.039.355-.118.3-.424-.016-.088-.038-.174-.061-.27-.05,0-.086.01-.121.01-.109,0-.266.044-.319-.01a.259.259,0,0,1-.075-.2.259.259,0,0,1,.1-.188.223.223,0,0,0,.081-.213.225.225,0,0,0-.149-.173.556.556,0,0,1-.3-.339.549.549,0,0,1,.054-.45,1.577,1.577,0,0,0,.078-.288.3.3,0,0,0-.039-.286.3.3,0,0,0-.264-.121.942.942,0,0,1-.793-.42.866.866,0,0,0-.707-.371.708.708,0,0,1-.522-.306.694.694,0,0,1-.09-.594c-.47.181-.679-.188-.957-.415-.183-.15-.278-.112-.369.1a.63.63,0,0,1-.3.247c-.065.166-.044.4-.371.315-.041-.011-.131.108-.18.179a.657.657,0,0,1-.725.358,1.972,1.972,0,0,0,.271-.173.991.991,0,0,0,.141-.213c-.1-.042-.2-.125-.291-.116a2.127,2.127,0,0,0-.446.143l-.039-.077.342-.273a5.8,5.8,0,0,0-.6-.159,2.914,2.914,0,0,0-.416.012c-.191,0-.418-.02-.424-.247,0-.1.173-.249.3-.31.37-.178.4-.228.145-.485a.509.509,0,0,1-.6-.051.851.851,0,0,0-.657.027.814.814,0,0,1-.7-.1,4.876,4.876,0,0,1,.513-.243c.379-.125.439-.224.344-.6a.337.337,0,0,1,.013-.2,6.716,6.716,0,0,1,.3-.654,1.27,1.27,0,0,1,.28-.36.386.386,0,0,0,.136-.5c-.052-.133-.075-.37,0-.438a.731.731,0,0,1,.477-.076,4.913,4.913,0,0,0,.594.107c.139-.008.271-.143.4-.222-.093-.089-.184-.182-.282-.266a.305.305,0,0,0-.132-.047.574.574,0,0,1-.446-.3.564.564,0,0,1,0-.533c.085-.2.219-.377.323-.569a3.916,3.916,0,0,0,.326-.654.461.461,0,0,1,.319-.333c.3-.1.326-.348.1-.563a.292.292,0,0,1-.03-.264.5.5,0,0,0-.118-.574c-.169-.181-.341-.358-.514-.534a.214.214,0,0,0-.1-.053c-.3-.069-.594-.137-.891-.2-.132-.029-.234-.061-.27-.221-.04-.18-.547-.427-.707-.338a.654.654,0,0,0-.189.278c-.053.1-.087.22-.135.346a2.954,2.954,0,0,1-.142-.4.7.7,0,0,1,.016-.314c.085-.28.024-.358-.283-.338-.1.007-.2,0-.3,0-.036-.392-.165-.47-.574-.392a1.643,1.643,0,0,1-.437-.059c.084-.1.121-.184.186-.222.227-.134.387-.278.312-.58a.417.417,0,0,1,.119-.333,6.494,6.494,0,0,1,.527-.4c.12-.094.274-.184.33-.311a2.193,2.193,0,0,1,1.1-.933c.048-.026.122-.035.144-.075.181-.31.5-.327.808-.413a2.11,2.11,0,0,0,.518-.25,7.5,7.5,0,0,1,1.9-1,.283.283,0,0,0,.147-.071,1.481,1.481,0,0,1,.985-.534,1.04,1.04,0,0,0,.651-.6c.042-.08.076-.191.145-.225a2.781,2.781,0,0,0,.919-.967c.116-.15.186-.335.3-.49a3.517,3.517,0,0,1,.415-.49.7.7,0,0,0,.161-.707,3.022,3.022,0,0,0-.1-.31c-.109-.364.012-.543.4-.593.165-.022.335-.011.5-.047a.566.566,0,0,0,.3-.17c.2-.253.369-.266.543-.014.031.044.067.108.109.116.334.063.4.359.576.576a3.639,3.639,0,0,0,.527.451,1.629,1.629,0,0,1,.294.275.367.367,0,0,0,.485.135.7.7,0,0,1,.685.076,3.479,3.479,0,0,0,.975.284.257.257,0,0,0,.219-.067c.165-.229.348-.168.488-.013.244.273.378.315.761.033a1.55,1.55,0,0,0,.417-.462c.19-.333.125-.475-.175-.718a1.893,1.893,0,0,1-.761-1.59c.008-.243.136-.349.369-.4.249-.052.488-.153.737-.207a.509.509,0,0,1,.356.034.668.668,0,0,0,.6.1,1.441,1.441,0,0,1,.592-.017,1.382,1.382,0,0,0,1.16-.329,1.952,1.952,0,0,0,.94-1.261.9.9,0,0,1,.133-.3c.165-.278.235-.279.5-.1a.55.55,0,0,0,.315.016,2.532,2.532,0,0,0,.4-.072,1,1,0,0,0,.437-.152.423.423,0,0,0,.056-.39.39.39,0,0,1-.06-.3.393.393,0,0,1,.169-.251.605.605,0,0,0,.142-.336c.062-.312.1-.628.159-.939a.335.335,0,0,1,.134-.239.342.342,0,0,1,.269-.061,9.576,9.576,0,0,0,1,0c.178-.005.261.057.24.237a1.569,1.569,0,0,0,0,.218.911.911,0,0,0,.189.678.929.929,0,0,0,.618.346.83.83,0,0,1,.6.542,2.25,2.25,0,0,0,.314.43c.107.147.21.3.332.469a1.855,1.855,0,0,1-.372.449.824.824,0,0,1-.536.1c-.561-.1-.73-.015-1,.461a.755.755,0,0,1-.443.276.535.535,0,0,0-.46.424,3.667,3.667,0,0,1-1.223,2.03.455.455,0,0,0-.132.308,4.445,4.445,0,0,0,.054.7c.007.054.087.1.14.146a3.711,3.711,0,0,1,.3.236.493.493,0,0,1,.2.36.491.491,0,0,1-.143.387c-.056.083-.118.162-.177.244a.687.687,0,0,0-.113.71,1.01,1.01,0,0,1,.06.867,1.025,1.025,0,0,1-.637.6,5.994,5.994,0,0,0-1.766,1.2c-.27.247-.58.451-.866.682-.1.083-.183.2-.289.276a.57.57,0,0,1-.266.108c-.5.064-.566.1-.644.571a.694.694,0,0,1-.536.59c-.252.078-.459.193-.469.5a.241.241,0,0,1-.154.162,1.245,1.245,0,0,1-.542.082,1.647,1.647,0,0,0-1.522.543c-.061.055-.114.137-.186.159a.8.8,0,0,0-.629.584c-.019.072-.166.129-.263.161-.321.108-.35.2-.216.5a.582.582,0,0,1,0,.449.87.87,0,0,0,.116,1.1.425.425,0,0,1,.165.485c-.084.223-.281.191-.461.226-.106.02-.281.117-.28.175,0,.151.119.236.3.161a.19.19,0,0,1,.132.007,2.8,2.8,0,0,1,1.349.912,2.847,2.847,0,0,0,.593.51c.041.034.1.06.12.1a1.283,1.283,0,0,0,.675.621,1.831,1.831,0,0,1,.825,1.052c.261.59.606,1.15.816,1.755A12.136,12.136,0,0,0-447-248.685a1.452,1.452,0,0,1,.248.454,5.226,5.226,0,0,0,.849,1.416,4.721,4.721,0,0,1,.555,1.135,9.692,9.692,0,0,1,.327,1.656,3.712,3.712,0,0,1-.1.91c-.042.3-.1.6-.138.909a.272.272,0,0,0,.042.206c.246.211.1.366-.046.546-.278.336-.273.374-.032.709.2.279.189.376-.072.663.149.221.229.225.382.029.09-.116.19-.225.286-.337l.094.038c-.023.383-.02.77-.081,1.147-.03.183-.2.339-.268.522a3.725,3.725,0,0,0-.13.608.726.726,0,0,1-.3.561.981.981,0,0,0-.3.7,1.293,1.293,0,0,1-.79,1.136c-.172.1-.258.338-.4.531-.261-.415-.667-.336-1.06-.259-.1.02-.268.132-.267.2.008.334-.492.454-.342.837.062.159.17.424.106.482a1.97,1.97,0,0,1-.63.307,3.215,3.215,0,0,1-.4.1,4.8,4.8,0,0,0-.452-.624c-.208-.213-.331-.184-.464.075a.405.405,0,0,1-.458.222c-.245-.032-.358.057-.378.3a.378.378,0,0,1-.186.23c-.17.1-.376.141-.532.253a.839.839,0,0,1-.909.12c-.429-.188-.583-.128-.9.231a5.37,5.37,0,0,1-.664.653.407.407,0,0,1-.362.084.4.4,0,0,1-.278-.245c-.05.053-.1.1-.178.185v-.7l-.087-.059a3.04,3.04,0,0,0-.538.5,1.013,1.013,0,0,1-1.15.507c-.087-.018-.2.084-.3.139a3.925,3.925,0,0,1-.513.3.388.388,0,0,1-.468-.135,1.6,1.6,0,0,0-.726-.26c-.161-.041-.318,0-.435-.2-.07-.12-.312-.181-.484-.2-.219-.022-.269-.132-.2-.287a3.13,3.13,0,0,1,.891-1.258,2.118,2.118,0,0,0,.372-.573c.026-.045.017-.11.041-.157a1.388,1.388,0,0,0-.028-1.4c-.159-.294.058-.587.27-.808a1.265,1.265,0,0,0,.394-1.28c-.109-.428.058-.653.483-.827.069-.027.136-.056.2-.079.181-.061.262-.148.091-.3-.127-.116-.145-.224,0-.335a.379.379,0,0,0,.072-.083c.329-.413.326-.427-.126-.711-.346-.216-.368-.326-.219-.7.036-.093-.023-.226-.051-.337-.032-.13-.093-.255-.116-.386-.035-.2-.053-.4-.073-.606a1.572,1.572,0,0,1-.006-.337c.014-.116.1-.239.077-.34a1.169,1.169,0,0,0-.223-.333,2.266,2.266,0,0,0-.248.2,2.367,2.367,0,0,0-.189.253Z" transform="translate(467.008 276.548)"/>
    <path id="패스_2" data-name="패스 2" class="cls-1" d="M-459.07-228.69a2.777,2.777,0,0,1,.27-.319c.075-.066.193-.151.27-.133a6.66,6.66,0,0,1,.848.275.219.219,0,0,1,.077.2c-.232.7-.455,1.414-1.267,1.689a4.423,4.423,0,0,1-.456.135,9.356,9.356,0,0,1-1.024.225.748.748,0,0,1-.5-.119.482.482,0,0,0-.355-.15.482.482,0,0,0-.352.159c-.321.274-.488.233-.81-.1-.25-.257-.285-.482.007-.736a3.585,3.585,0,0,0,.6-.622c.222-.317.5-.257.813-.24a.7.7,0,0,0,.516-.153.878.878,0,0,1,.655-.382.878.878,0,0,1,.708.271Z" transform="translate(467.008 276.535)"/>
    <path id="패스_3" data-name="패스 3" class="cls-1" d="M-438.8-248.393c-.358.163-.708.346-1.077.477a.506.506,0,0,1-.414-.1.375.375,0,0,1-.06-.362c.16-.244.368-.636.562-.638a3.057,3.057,0,0,1,1.035.373Z" transform="translate(467.258 276.541)"/>
    <path id="패스_4" data-name="패스 4" class="cls-1" d="M-437.47-247.21c.118.1.171.149-.01.149s-.245.077-.245-.109.022-.118.058-.137C-437.507-247.39-437.6-247.323-437.47-247.21Z" transform="translate(467.258 276.54)"/>
    <path id="패스_5" data-name="패스 5" class="cls-1" d="M-437.447-247.213c-.089-.07-.129-.1,0-.112s.172-.068.179.072-.01.09-.035.1C-437.413-247.079-437.347-247.133-437.447-247.213Z" transform="translate(467.258 276.54)"/>
  </g>
</svg>
