<svg xmlns="http://www.w3.org/2000/svg" width="30" height="32" viewBox="0 0 30 32">
  <defs>
    <style>
      .cls-1 {
        fill: #726bf8;
      }
    </style>
  </defs>
  <g id="방송종료" transform="translate(-184.828 -215.115)">
    <path id="패스_12" data-name="패스 12" class="cls-1" d="M199.828,231.771a1.907,1.907,0,0,1-1.393-.581,1.817,1.817,0,0,1-.587-1.353V217.05a1.819,1.819,0,0,1,.587-1.354,1.96,1.96,0,0,1,2.785,0,1.82,1.82,0,0,1,.588,1.355v12.787a1.816,1.816,0,0,1-.588,1.353A1.9,1.9,0,0,1,199.828,231.771Z"/>
    <path id="패스_13" data-name="패스 13" class="cls-1" d="M199.828,247.115a14.881,14.881,0,0,1-5.82-1.17,15.219,15.219,0,0,1-4.789-3.147,14.917,14.917,0,0,1-3.2-4.7,14.169,14.169,0,0,1-1.188-5.705,14.345,14.345,0,0,1,1.57-6.571,14.581,14.581,0,0,1,4.421-5.174,1.969,1.969,0,0,1,1.2-.4,2.327,2.327,0,0,1,.3.02,1.952,1.952,0,0,1,1.66,2.179,1.868,1.868,0,0,1-.764,1.28,10.891,10.891,0,0,0-3.264,3.832,10.638,10.638,0,0,0-.281,9.052,10.985,10.985,0,0,0,2.363,3.463,11.182,11.182,0,0,0,3.522,2.317,11.1,11.1,0,0,0,8.562,0,11.187,11.187,0,0,0,3.522-2.317,10.953,10.953,0,0,0,2.363-3.463,10.466,10.466,0,0,0,.875-4.214,10.574,10.574,0,0,0-1.155-4.838,10.917,10.917,0,0,0-3.266-3.834,1.855,1.855,0,0,1-.762-1.277,1.783,1.783,0,0,1,.374-1.417,1.811,1.811,0,0,1,1.295-.762,2.2,2.2,0,0,1,.3-.021,1.9,1.9,0,0,1,1.177.4,14.587,14.587,0,0,1,4.426,5.179,14.331,14.331,0,0,1,1.57,6.57,14.159,14.159,0,0,1-1.189,5.705,14.926,14.926,0,0,1-3.2,4.7,15.235,15.235,0,0,1-4.79,3.147A14.876,14.876,0,0,1,199.828,247.115Z"/>
  </g>
</svg>
