<svg xmlns="http://www.w3.org/2000/svg" width="22" height="32" viewBox="0 0 22 32">
  <defs>
    <style>
      .cls-1 {
        fill: #726bf8;
      }
    </style>
  </defs>
  <g id="방송시작" transform="translate(-73.087 -221.542)">
    <g id="그룹_4" data-name="그룹 4">
      <path id="패스_14" data-name="패스 14" class="cls-1" d="M84.087,243.7a5.868,5.868,0,0,0,4.316-1.807,5.949,5.949,0,0,0,1.794-4.347V227.7A5.947,5.947,0,0,0,88.4,223.35a6.056,6.056,0,0,0-8.632,0,5.946,5.946,0,0,0-1.8,4.347v9.845a5.95,5.95,0,0,0,1.8,4.347A5.868,5.868,0,0,0,84.087,243.7Z"/>
      <path id="패스_15" data-name="패스 15" class="cls-1" d="M94.723,234.216a1.191,1.191,0,0,0-1.718,0,1.185,1.185,0,0,0-.363.865v2.461a8.328,8.328,0,0,1-2.511,6.087,8.487,8.487,0,0,1-12.088,0,8.326,8.326,0,0,1-2.511-6.087v-2.461a1.185,1.185,0,0,0-.363-.865,1.192,1.192,0,0,0-1.719,0,1.185,1.185,0,0,0-.363.865v2.461a11.047,11.047,0,0,0,9.778,11v2.539H77.976a1.17,1.17,0,0,0-.859.365,1.213,1.213,0,0,0,0,1.731,1.17,1.17,0,0,0,.859.365H90.2a1.174,1.174,0,0,0,.86-.365,1.213,1.213,0,0,0,0-1.731,1.172,1.172,0,0,0-.86-.365H85.309v-2.539a11.047,11.047,0,0,0,9.778-11v-2.461A1.182,1.182,0,0,0,94.723,234.216Z"/>
    </g>
  </g>
</svg>
