<svg xmlns="http://www.w3.org/2000/svg" width="24" height="24" viewBox="0 0 24 24">
  <g id="Vector_Smart_Object" data-name="Vector Smart Object" transform="translate(-18.008 -18.008)">
    <path id="패스_1" data-name="패스 1" d="M36.9,18.008H23.117a5.109,5.109,0,0,0-5.109,5.109v9.21c0,3.835,2.616,5.665,6.8,5.665v3.337a.681.681,0,0,0,.681.679.67.67,0,0,0,.478-.2l1.363-1.362A8.347,8.347,0,0,1,33.23,38H36.9a5.109,5.109,0,0,0,5.109-5.109V23.117A5.109,5.109,0,0,0,36.9,18.008ZM24.808,29.6a1.6,1.6,0,1,1,1.6-1.6A1.6,1.6,0,0,1,24.808,29.6Zm5.2,0a1.6,1.6,0,1,1,1.6-1.6A1.6,1.6,0,0,1,30.008,29.6Zm5.2,0a1.6,1.6,0,1,1,1.6-1.6A1.6,1.6,0,0,1,35.208,29.6Z" fill="#726bf8"/>
  </g>
</svg>
