<svg xmlns="http://www.w3.org/2000/svg" width="36" height="36" viewBox="0 0 36 36">
  <defs>
    <style>
      .cls-1 {
        fill: #fff;
      }

      .cls-2 {
        fill: #ddd;
      }
    </style>
  </defs>
  <g id="선택_off" transform="translate(-949 -445)">
    <rect id="사각형_3" data-name="사각형 3" class="cls-1" width="36" height="36" rx="4" transform="translate(949 445)"/>
    <path id="사각형_3_-_윤곽선" data-name="사각형 3 - 윤곽선" class="cls-2" d="M4,1A3,3,0,0,0,1,4V32a3,3,0,0,0,3,3H32a3,3,0,0,0,3-3V4a3,3,0,0,0-3-3H4M4,0H32a4,4,0,0,1,4,4V32a4,4,0,0,1-4,4H4a4,4,0,0,1-4-4V4A4,4,0,0,1,4,0Z" transform="translate(949 445)"/>
    <path id="패스_4" data-name="패스 4" class="cls-2" d="M16.427,0,7.042,9,1.552,3.729,0,5.229,7.042,12,18,1.49Z" transform="translate(958 457)"/>
  </g>
</svg>
