<svg xmlns="http://www.w3.org/2000/svg" width="30" height="30" viewBox="0 0 30 30">
  <path id="패스_3" data-name="패스 3" d="M83.582,366.634H60.457a3.44,3.44,0,0,0-3.437,3.437v16.875a3.441,3.441,0,0,0,3.437,3.438H62.02V395.7a.937.937,0,0,0,1.6.663l5.975-5.975H83.582a3.441,3.441,0,0,0,3.438-3.438V370.071A3.44,3.44,0,0,0,83.582,366.634ZM74.57,384a1.4,1.4,0,0,1-1.4,1.388h-2.3a1.443,1.443,0,0,1-1.4-1.613V383.1h5.1Zm1.012-3.7a2.685,2.685,0,0,0-.975,1.55H69.445a2.352,2.352,0,0,0-.913-1.487,5.526,5.526,0,0,1-2.137-4.5,5.653,5.653,0,0,1,5.537-5.475,5.581,5.581,0,0,1,3.65,9.912Z" transform="translate(-57.02 -366.634)" fill="#726bf8"/>
</svg>
