<svg id="고객사목록" xmlns="http://www.w3.org/2000/svg" xmlns:xlink="http://www.w3.org/1999/xlink" width="28" height="30" viewBox="0 0 28 30">
  <defs>
    <style>
      .cls-1 {
        fill: none;
      }

      .cls-2 {
        clip-path: url(#clip-path);
      }

      .cls-3 {
        fill: #726bf8;
      }
    </style>
    <clipPath id="clip-path">
      <rect id="사각형_78" data-name="사각형 78" class="cls-1" width="28" height="30"/>
    </clipPath>
  </defs>
  <g id="그룹_135" data-name="그룹 135" class="cls-2">
    <path id="패스_153" data-name="패스 153" class="cls-3" d="M25,10H18V3a3,3,0,0,0-3-3H3A3,3,0,0,0,0,3V29a1,1,0,0,0,1,1H7.5a.5.5,0,0,0,.5-.5V25.028A1.021,1.021,0,0,1,8.952,24,1,1,0,0,1,10,24.952c0,.016,0,.032,0,.048v4.5a.5.5,0,0,0,.5.5H27a1,1,0,0,0,1-1V13a3,3,0,0,0-3-3M4.13,25.992a1,1,0,1,1,.862-1.121,1.021,1.021,0,0,1,0,.259,1,1,0,0,1-.862.862m0-5a1,1,0,1,1,.862-1.121,1.021,1.021,0,0,1,0,.259,1,1,0,0,1-.862.862m0-5a1,1,0,1,1,.862-1.121,1.021,1.021,0,0,1,0,.259,1,1,0,0,1-.862.862m0-5a1,1,0,1,1,.862-1.121,1.021,1.021,0,0,1,0,.259,1,1,0,0,1-.862.862m0-5a1,1,0,1,1,.862-1.121,1.021,1.021,0,0,1,0,.259,1,1,0,0,1-.862.862m5,15a1,1,0,1,1,.862-1.121,1.02,1.02,0,0,1,0,.259,1,1,0,0,1-.862.862m0-5a1,1,0,1,1,.862-1.121,1.02,1.02,0,0,1,0,.259,1,1,0,0,1-.862.862m0-5a1,1,0,1,1,.862-1.121,1.02,1.02,0,0,1,0,.259,1,1,0,0,1-.862.862m0-5a1,1,0,1,1,.862-1.121,1.02,1.02,0,0,1,0,.259,1,1,0,0,1-.862.862m5,20a1,1,0,1,1,.862-1.121,1.02,1.02,0,0,1,0,.259A1,1,0,0,1,14.13,25.992Zm0-5a1,1,0,1,1,.862-1.121,1.02,1.02,0,0,1,0,.259A1,1,0,0,1,14.13,20.992Zm0-5a1,1,0,1,1,.862-1.121,1.02,1.02,0,0,1,0,.259A1,1,0,0,1,14.13,15.992Zm0-5a1,1,0,1,1,.862-1.121,1.02,1.02,0,0,1,0,.259A1,1,0,0,1,14.13,10.992Zm0-5a1,1,0,1,1,.862-1.121,1.02,1.02,0,0,1,0,.259A1,1,0,0,1,14.13,5.992ZM25.75,28H18V12h7a1,1,0,0,1,1,1V27.75a.25.25,0,0,1-.25.25"/>
    <path id="패스_154" data-name="패스 154" class="cls-3" d="M23,24a1,1,0,1,0,1,1,1,1,0,0,0-1-1m0-5a1,1,0,1,0,1,1,1,1,0,0,0-1-1m0-5a1,1,0,1,0,1,1,1,1,0,0,0-1-1M19,24a1,1,0,1,0,1,1,1,1,0,0,0-1-1m0-5a1,1,0,1,0,1,1,1,1,0,0,0-1-1m0-5a1,1,0,1,0,1,1,1,1,0,0,0-1-1"/>
  </g>
</svg>
