<svg id="관리자" xmlns="http://www.w3.org/2000/svg" xmlns:xlink="http://www.w3.org/1999/xlink" width="30" height="30" viewBox="0 0 30 30">
  <defs>
    <style>
      .cls-1 {
        fill: none;
      }

      .cls-2 {
        clip-path: url(#clip-path);
      }

      .cls-3 {
        fill: #726bf8;
      }
    </style>
    <clipPath id="clip-path">
      <rect id="사각형_4" data-name="사각형 4" class="cls-1" width="30" height="30"/>
    </clipPath>
  </defs>
  <g id="그룹_3" data-name="그룹 3" class="cls-2">
    <path id="패스_5" data-name="패스 5" class="cls-3" d="M29.3,5.977a1.07,1.07,0,0,0-1.442-.463,1.119,1.119,0,0,0-.268.194L23.477,9.825a1.079,1.079,0,0,1-1.515,0L20.183,8.044a1.072,1.072,0,0,1,0-1.515l4.1-4.1a1.071,1.071,0,0,0,0-1.515A1.1,1.1,0,0,0,23.96.7a8.616,8.616,0,0,0-9.393,1.756c-2.069,2.054-2.686,5.262-1.691,8.805a1.062,1.062,0,0,1-.3,1.071L1.427,22.508a4.3,4.3,0,1,0,6.067,6.068l10.292-11.17a1.066,1.066,0,0,1,1.056-.306,11.991,11.991,0,0,0,3.1.427,7.824,7.824,0,0,0,5.616-2.118A8.743,8.743,0,0,0,29.3,5.977ZM4.52,27.842a2.142,2.142,0,1,1,1.9-2.361,2.108,2.108,0,0,1,0,.463,2.141,2.141,0,0,1-1.9,1.9"/>
  </g>
</svg>
