<svg xmlns="http://www.w3.org/2000/svg" width="31.999" height="30" viewBox="0 0 31.999 30">
  <defs>
    <style>
      .cls-1 {
        fill: #726bf8;
      }
    </style>
  </defs>
  <g id="고객정보" transform="translate(-889.624 -326.568)">
    <path id="패스_14" data-name="패스 14" class="cls-1" d="M56.435,28.6a1.078,1.078,0,0,0-.748.092l-1.64.822-1.653-.83a1.061,1.061,0,0,0-.954,0l-1.674.831-1.652-.831a1.061,1.061,0,0,0-.957,0l-1.643.828-1.63-.826a1.061,1.061,0,0,0-.957,0l-1.68.833-1.653-.832a1.063,1.063,0,0,0-.955,0l-1.658.831-1.656-.831a1.064,1.064,0,0,0-1.291.264,1.083,1.083,0,0,0-.253.713V45.71l0,0h12.8a2.138,2.138,0,0,1,2.133,2.142v6.961c0,2.071,2.2,3.75,4.267,3.75h.8a3.474,3.474,0,0,0,3.466-3.482V29.639a1.07,1.07,0,0,0-.812-1.041M51.914,42.5h-8.5a1.091,1.091,0,0,1-1.1-1.023,1.071,1.071,0,0,1,1.018-1.119h8.548a1.09,1.09,0,0,1,1.1,1.023,1.069,1.069,0,0,1-1.017,1.119h-.048m0-5.357H39.147a1.09,1.09,0,0,1-1.1-1.023A1.07,1.07,0,0,1,39.066,35H51.881a1.09,1.09,0,0,1,1.1,1.023,1.07,1.07,0,0,1-1.017,1.119h-.048" transform="translate(864.376 298)"/>
    <path id="패스_15" data-name="패스 15" class="cls-1" d="M46.581,54.818V48.925a1.07,1.07,0,0,0-1.067-1.071H27.381A2.144,2.144,0,0,0,25.248,50c0,3.385.385,4.793.964,5.864.982,1.819,2.76,2.7,5.436,2.7H48.026a.268.268,0,0,0,.19-.456,4.264,4.264,0,0,1-1.635-3.294" transform="translate(864.376 298)"/>
  </g>
</svg>
