<svg id="이벤트수정" xmlns="http://www.w3.org/2000/svg" xmlns:xlink="http://www.w3.org/1999/xlink" width="30" height="30" viewBox="0 0 30 30">
  <defs>
    <style>
      .cls-1 {
        fill: #726bf8;
      }

      .cls-2 {
        clip-path: url(#clip-path);
      }
    </style>
    <clipPath id="clip-path">
      <rect id="사각형_7" data-name="사각형 7" class="cls-1" width="30" height="30"/>
    </clipPath>
  </defs>
  <g id="그룹_6" data-name="그룹 6" class="cls-2">
    <path id="패스_8" data-name="패스 8" class="cls-1" d="M15,11.87A3.132,3.132,0,1,1,11.786,15,3.173,3.173,0,0,1,15,11.87"/>
    <path id="패스_9" data-name="패스 9" class="cls-1" d="M29.356,17.869l-.031-.024L27.211,16.23a1.039,1.039,0,0,1-.408-.869v-.754a1.033,1.033,0,0,1,.409-.862l2.113-1.615.031-.025a1.708,1.708,0,0,0,.395-2.221l-2.86-4.819-.008-.015a1.824,1.824,0,0,0-2.173-.737l-.024.009L22.2,5.3a1.09,1.09,0,0,1-.969-.084c-.22-.134-.443-.262-.67-.382a1.038,1.038,0,0,1-.548-.771l-.374-2.582-.009-.047A1.809,1.809,0,0,0,17.863,0H12.137a1.791,1.791,0,0,0-1.772,1.46l-.006.037L9.986,4.084a1.044,1.044,0,0,1-.544.771q-.342.178-.67.379a1.09,1.09,0,0,1-.966.083L5.32,4.339,5.3,4.33a1.824,1.824,0,0,0-2.175.739l-.008.014L.248,9.906a1.712,1.712,0,0,0,.4,2.224l.031.025,2.113,1.614a1.039,1.039,0,0,1,.409.869v.754a1.034,1.034,0,0,1-.409.863L.675,17.869l-.031.025a1.709,1.709,0,0,0-.4,2.221l2.861,4.82.008.014a1.822,1.822,0,0,0,2.173.737l.024-.008L7.8,24.7a1.093,1.093,0,0,1,.969.084c.22.135.443.263.67.382a1.043,1.043,0,0,1,.548.771l.372,2.582.008.047A1.812,1.812,0,0,0,12.137,30h5.726a1.789,1.789,0,0,0,1.771-1.46l.007-.037.373-2.587a1.044,1.044,0,0,1,.547-.771c.229-.12.453-.247.67-.38a1.09,1.09,0,0,1,.966-.082l2.487.975.023.009a1.823,1.823,0,0,0,2.175-.74l.009-.014,2.86-4.819a1.712,1.712,0,0,0-.395-2.225m-9.005-2.624a5.373,5.373,0,0,1-10.732-.462,5.318,5.318,0,0,1,5.6-4.995,5.44,5.44,0,0,1,3.561,1.528,5.143,5.143,0,0,1,1.568,3.929"/>
  </g>
</svg>
