<svg id="고객관리" xmlns="http://www.w3.org/2000/svg" xmlns:xlink="http://www.w3.org/1999/xlink" width="40" height="30" viewBox="0 0 40 30">
  <defs>
    <style>
      .cls-1 {
        fill: none;
      }

      .cls-2 {
        clip-path: url(#clip-path);
      }

      .cls-3 {
        fill: #726bf8;
      }
    </style>
    <clipPath id="clip-path">
      <rect id="사각형_8" data-name="사각형 8" class="cls-1" width="40" height="30"/>
    </clipPath>
  </defs>
  <g id="그룹_7" data-name="그룹 7" class="cls-2">
    <path id="패스_10" data-name="패스 10" class="cls-3" d="M26.666,15A6.338,6.338,0,0,1,22,12.8a8.61,8.61,0,0,1-2.167-5.2,7.22,7.22,0,0,1,1.762-5.435,7,7,0,0,1,10.13.011A7.2,7.2,0,0,1,33.5,7.6a8.64,8.64,0,0,1-2.166,5.2A6.329,6.329,0,0,1,26.666,15M37.652,30H15.681a2.288,2.288,0,0,1-1.833-.91,2.62,2.62,0,0,1-.438-2.2,11.214,11.214,0,0,1,5.026-6.91,15.542,15.542,0,0,1,8.23-2.255,15.4,15.4,0,0,1,8.226,2.22,11.156,11.156,0,0,1,5.032,6.95,2.629,2.629,0,0,1-.444,2.2A2.29,2.29,0,0,1,37.652,30ZM10.916,15.341c-2.932,0-5.51-2.789-5.75-6.216a6.1,6.1,0,0,1,1.5-4.57,5.66,5.66,0,0,1,4.25-1.828,5.645,5.645,0,0,1,4.245,1.838,6.051,6.051,0,0,1,1.5,4.562c-.24,3.426-2.817,6.214-5.745,6.214m5.472,2.68a12.405,12.405,0,0,0-5.471-1.1A12.672,12.672,0,0,0,4.2,18.764,9.229,9.229,0,0,0,.07,24.45a2.379,2.379,0,0,0,.4,1.991,2.094,2.094,0,0,0,1.674.831h9.25a.671.671,0,0,0,.656-.559c.009-.054.021-.108.034-.161a12.36,12.36,0,0,1,4.809-7.144.691.691,0,0,0,.151-.951.669.669,0,0,0-.2-.19C16.709,18.189,16.559,18.106,16.388,18.021Z"/>
  </g>
</svg>
