<svg xmlns="http://www.w3.org/2000/svg" width="24" height="30" viewBox="0 0 24 30">
  <g id="그룹_1" data-name="그룹 1" transform="translate(-282.25 -425.985)">
    <path id="패스_3" data-name="패스 3" d="M288.25,432.86a1.257,1.257,0,0,1-1.263-1.25v-4.375a1.264,1.264,0,0,1,2.527,0v4.375A1.257,1.257,0,0,1,288.25,432.86Z" fill="#726bf8"/>
    <path id="패스_4" data-name="패스 4" d="M294.25,432.86a1.257,1.257,0,0,1-1.263-1.25v-4.375a1.264,1.264,0,0,1,2.527,0v4.375A1.257,1.257,0,0,1,294.25,432.86Z" fill="#726bf8"/>
    <path id="패스_5" data-name="패스 5" d="M300.25,432.86a1.257,1.257,0,0,1-1.263-1.25v-4.375a1.264,1.264,0,0,1,2.527,0v4.375A1.257,1.257,0,0,1,300.25,432.86Z" fill="#726bf8"/>
    <path id="패스_6" data-name="패스 6" d="M302.777,428.8H285.724a3.459,3.459,0,0,0-3.474,3.437v20.313a3.459,3.459,0,0,0,3.474,3.437h17.053a3.458,3.458,0,0,0,3.473-3.437V432.235A3.458,3.458,0,0,0,302.777,428.8Zm-14.211,7.187h6.316a1.25,1.25,0,1,1,0,2.5h-6.316a1.25,1.25,0,1,1,0-2.5Zm12.632,12.5H288.566a1.25,1.25,0,1,1,0-2.5H301.2a1.25,1.25,0,1,1,0,2.5Zm0-5H288.566a1.25,1.25,0,1,1,0-2.5H301.2a1.25,1.25,0,1,1,0,2.5Z" fill="#726bf8"/>
  </g>
</svg>
