<svg id="이벤트정보" xmlns="http://www.w3.org/2000/svg" xmlns:xlink="http://www.w3.org/1999/xlink" width="30" height="30" viewBox="0 0 30 30">
  <defs>
    <style>
      .cls-1 {
        fill: none;
      }

      .cls-2 {
        clip-path: url(#clip-path);
      }

      .cls-3 {
        fill: #726bf8;
      }
    </style>
    <clipPath id="clip-path">
      <rect id="사각형_5" data-name="사각형 5" class="cls-1" width="30" height="30"/>
    </clipPath>
  </defs>
  <g id="그룹_4" data-name="그룹 4" class="cls-2">
    <path id="패스_6" data-name="패스 6" class="cls-3" d="M4.37,12.02H1.092a1.093,1.093,0,0,1,0-2.186H4.37a1.093,1.093,0,0,1,0,2.186M6.29,7.383a1.1,1.1,0,0,1-.772-.321L3.2,4.747A1.091,1.091,0,0,1,4.746,3.2L7.061,5.518A1.093,1.093,0,0,1,6.29,7.383m4.637-1.919A1.1,1.1,0,0,1,9.834,4.371V1.093a1.093,1.093,0,0,1,2.186,0V4.371a1.1,1.1,0,0,1-1.093,1.093m4.637,1.919a1.092,1.092,0,0,1-.772-1.865L17.108,3.2a1.091,1.091,0,0,1,1.543,1.544L16.336,7.062A1.1,1.1,0,0,1,15.564,7.383ZM3.974,18.972A1.091,1.091,0,0,1,3.2,17.108l2.315-2.315a1.091,1.091,0,1,1,1.554,1.532l-.011.011L4.746,18.651A1.1,1.1,0,0,1,3.974,18.972ZM13.809,9.22a3.245,3.245,0,1,0-4.637,4.541l.047.048,2.7,2.7a.548.548,0,0,0,.772,0l3.818-3.818a.549.549,0,0,0,0-.771ZM29.025,24.436l-10.2-10.2a.548.548,0,0,0-.772,0L14.232,18.05a.55.55,0,0,0,0,.772l10.2,10.2a3.245,3.245,0,1,0,4.637-4.541.273.273,0,0,0-.048-.048"/>
  </g>
</svg>
