<svg xmlns="http://www.w3.org/2000/svg" width="30" height="30" viewBox="0 0 30 30">
  <defs>
    <style>
      .cls-1 {
        fill: #726bf8;
      }
    </style>
  </defs>
  <g id="계정목록" transform="translate(549.687 -145.109)">
    <g id="그룹_2" data-name="그룹 2">
      <path id="패스_8" data-name="패스 8" class="cls-1" d="M-519.96,156.155l-2.454-1.841v-1.705a.7.7,0,0,0-.018-.089.62.62,0,0,0-.017-.084.664.664,0,0,0-.166-.31l-6.816-6.817a.681.681,0,0,0-.309-.165.641.641,0,0,0-.087-.018.634.634,0,0,0-.087-.017h-14.318a2.731,2.731,0,0,0-2.728,2.727v6.478l-2.454,1.841a.687.687,0,0,0-.273.545v15.682a2.73,2.73,0,0,0,2.727,2.727h24.546a2.73,2.73,0,0,0,2.727-2.727V156.658A.643.643,0,0,0-519.96,156.155Zm-9.272-8.718,4.49,4.49h-3.127a1.365,1.365,0,0,1-1.363-1.363Zm-5.455,1.763a4.1,4.1,0,0,1,4.091,4.091,4.1,4.1,0,0,1-4.091,4.091,4.1,4.1,0,0,1-4.091-4.091A4.1,4.1,0,0,1-534.687,149.2Zm.93,17.336a1.492,1.492,0,0,1-1.881,0c-2.641-2.338-9.96-8.052-12.243-9.827l1.142-.857c.017.015.024.037.042.051,1.213.944,3.258,2.542,5.368,4.216a3.611,3.611,0,0,1,.378-.284,13.356,13.356,0,0,1,6.264-1.772,13.356,13.356,0,0,1,6.264,1.772,3.39,3.39,0,0,1,.373.28c2.111-1.672,4.158-3.269,5.372-4.212.018-.014.026-.036.042-.052l1.143.857C-523.784,158.486-531.136,164.217-533.757,166.536Z"/>
    </g>
  </g>
</svg>
