<svg id="이벤트등록" xmlns="http://www.w3.org/2000/svg" xmlns:xlink="http://www.w3.org/1999/xlink" width="30" height="30" viewBox="0 0 30 30">
  <defs>
    <style>
      .cls-1 {
        fill: none;
      }

      .cls-2 {
        clip-path: url(#clip-path);
      }

      .cls-3 {
        fill: #726bf8;
      }
    </style>
    <clipPath id="clip-path">
      <rect id="사각형_1" data-name="사각형 1" class="cls-1" width="30" height="30"/>
    </clipPath>
  </defs>
  <g id="그룹_1" data-name="그룹 1" class="cls-2">
    <path id="패스_1" data-name="패스 1" class="cls-3" d="M25.179,5.357h-15a4.821,4.821,0,0,0-4.821,4.822v15A4.821,4.821,0,0,0,10.179,30h15A4.821,4.821,0,0,0,30,25.179v-15a4.821,4.821,0,0,0-4.821-4.822M23.006,18.75H18.75v4.256a1.092,1.092,0,0,1-1.019,1.1,1.071,1.071,0,0,1-1.122-1.019c0-.017,0-.034,0-.051V18.75H12.352a1.092,1.092,0,0,1-1.1-1.02,1.071,1.071,0,0,1,1.018-1.122h4.338V12.352a1.092,1.092,0,0,1,1.019-1.1,1.072,1.072,0,0,1,1.122,1.019c0,.017,0,.034,0,.051v4.286h4.286a1.072,1.072,0,0,1,1.073,1.07v.053a1.094,1.094,0,0,1-1.1,1.02"/>
    <path id="패스_2" data-name="패스 2" class="cls-3" d="M24.367,3.214A4.828,4.828,0,0,0,19.821,0h-15A4.821,4.821,0,0,0,0,4.821v15a4.831,4.831,0,0,0,3.214,4.546V8.571A5.357,5.357,0,0,1,8.571,3.214Z"/>
  </g>
</svg>
