<svg xmlns="http://www.w3.org/2000/svg" width="30" height="30" viewBox="0 0 30 30">
  <defs>
    <style>
      .cls-1 {
        fill: #726bf8;
      }
    </style>
  </defs>
  <path id="VOD목록" class="cls-1" d="M-328,205.876a15.017,15.017,0,0,0-15-15,15.017,15.017,0,0,0-15,15,15.017,15.017,0,0,0,15,15h13.125V219h-5.879A15.008,15.008,0,0,0-328,205.876Zm-12.8,3.034a2.814,2.814,0,0,1,3.929.622,2.813,2.813,0,0,1-.623,3.929,2.812,2.812,0,0,1-3.928-.623A2.813,2.813,0,0,1-340.8,208.91Zm3.168-7.737a2.813,2.813,0,0,1,3.544,1.806,2.812,2.812,0,0,1-1.806,3.544,2.812,2.812,0,0,1-3.544-1.806A2.814,2.814,0,0,1-337.628,201.173ZM-343,196.5a2.813,2.813,0,0,1,2.813,2.813A2.813,2.813,0,0,1-343,202.126a2.812,2.812,0,0,1-2.812-2.812A2.812,2.812,0,0,1-343,196.5Zm-8.916,6.478a2.813,2.813,0,0,1,3.544-1.806,2.813,2.813,0,0,1,1.806,3.544,2.812,2.812,0,0,1-3.544,1.806,2.812,2.812,0,0,1-1.806-3.544Zm7.334,9.859a2.812,2.812,0,0,1-3.928.623,2.813,2.813,0,0,1-.623-3.929,2.814,2.814,0,0,1,3.929-.622,2.813,2.813,0,0,1,.622,3.928Zm-.293-6.962A1.875,1.875,0,0,1-343,204a1.875,1.875,0,0,1,1.875,1.875A1.874,1.874,0,0,1-343,207.751,1.874,1.874,0,0,1-344.875,205.876Z" transform="translate(358 -190.876)"/>
</svg>
