<svg xmlns="http://www.w3.org/2000/svg" width="16" height="16" viewBox="0 0 16 16">
  <g id="Vector_Smart_Object" data-name="Vector Smart Object" transform="translate(-115.75 -206.507)">
    <path id="패스_1" data-name="패스 1" d="M117.328,208.085a5.409,5.409,0,0,0,5.844,8.838l5.413,5.412a.584.584,0,0,0,.656.12l1.49-.676a.6.6,0,0,0,.172-.119.6.6,0,0,0,.119-.172L131.7,220a.588.588,0,0,0-.119-.657l-.6-.6a.586.586,0,0,0-.414-.172h-1.118v-1.117a.587.587,0,0,0-.172-.415l-.465-.465a.586.586,0,0,0-.414-.171h-1.118v-1.118a.586.586,0,0,0-.172-.414l-.938-.938a5.409,5.409,0,0,0-8.838-5.844Zm3.37,3.37a1.386,1.386,0,1,1,0-1.959A1.387,1.387,0,0,1,120.7,211.455Z" fill="#726bf8"/>
  </g>
</svg>
