<svg xmlns="http://www.w3.org/2000/svg" xmlns:xlink="http://www.w3.org/1999/xlink" width="30" height="30" viewBox="0 0 30 30">
  <defs>
    <style>
      .cls-1 {
        fill: #fff;
      }

      .cls-2 {
        clip-path: url(#clip-path);
      }

      .cls-3 {
        fill: #cd2e3a;
      }

      .cls-4 {
        fill: #0047a0;
      }
    </style>
    <clipPath id="clip-path">
      <path id="패스_28" data-name="패스 28" class="cls-1" d="M18.048,0a15,15,0,1,0,15,15A15,15,0,0,0,18.048,0Z"/>
    </clipPath>
  </defs>
  <g id="그룹_9" data-name="그룹 9" transform="translate(-3.047)">
    <g id="그룹_8" data-name="그룹 8" class="cls-2">
      <rect id="사각형_11" data-name="사각형 11" class="cls-1" width="36.095" height="30.001" transform="translate(0 -0.001)"/>
      <path id="패스_16" data-name="패스 16" d="M5.951,10.55,9.288,5.545M7.2,11.385,10.54,6.379m-2.086,5.84,3.337-5"/>
      <path id="패스_17" data-name="패스 17" d="M8.871,12.5l-.834-.556,3.336-5.005.835.556Zm-1.252-.834-.834-.556L10.122,6.1l.834.556Zm-1.251-.834-.834-.556L8.871,5.267l.834.557Z"/>
      <path id="패스_18" data-name="패스 18" d="M24.3,22.786l3.337-5m-2.085,5.84,3.337-5.006m-2.086,5.84,3.337-5"/>
      <path id="패스_19" data-name="패스 19" d="M27.224,24.732l-.835-.556,3.337-5.005.836.556ZM25.972,23.9l-.833-.556,3.337-5,.833.556Zm-1.25-.834-.835-.556L27.224,17.5l.835.557Z"/>
      <line id="선_1" data-name="선 1" x2="4.171" y2="2.781" transform="translate(25.139 19.727)"/>
      <rect id="사각형_12" data-name="사각형 12" class="cls-1" width="0.501" height="5.013" transform="matrix(0.555, -0.832, 0.832, 0.555, 25, 19.936)"/>
      <path id="패스_20" data-name="패스 20" class="cls-3" d="M13.042,11.663A6.016,6.016,0,1,1,14.711,20a6.016,6.016,0,0,1-1.669-8.342"/>
      <path id="패스_21" data-name="패스 21" class="cls-4" d="M13.042,11.663A3.008,3.008,0,0,0,18.047,15a3.008,3.008,0,0,1,5.006,3.337,6.016,6.016,0,0,1-10.011-6.674"/>
      <path id="패스_22" data-name="패스 22" d="M9.288,24.455,5.951,19.449M10.54,23.62,7.2,18.615m4.588,4.171-3.337-5"/>
      <path id="패스_23" data-name="패스 23" d="M8.871,24.732,5.534,19.727l.835-.556L9.7,24.176Zm1.252-.834L6.786,18.893l.834-.556,3.337,5Zm1.251-.834-3.337-5,.834-.557,3.337,5.006Z"/>
      <path id="패스_24" data-name="패스 24" d="M27.641,12.22,24.3,7.214m4.589,4.171L25.556,6.38m4.588,4.171-3.337-5"/>
      <path id="패스_25" data-name="패스 25" d="M27.224,12.5l-3.337-5,.835-.556,3.337,5.005Zm1.252-.834L25.139,6.658l.834-.556,3.337,5.005Zm1.251-.834L26.39,5.824l.834-.557,3.337,5.006Z"/>
      <path id="패스_26" data-name="패스 26" d="M8.245,21.535,9.5,20.7M25.139,10.273,26.6,9.3m1.251-.834L29.1,7.631"/>
      <path id="패스_27" data-name="패스 27" class="cls-1" d="M8.384,21.744l-.278-.417,1.251-.835.279.418ZM25.278,10.482,25,10.064l1.46-.973.278.417Zm2.711-1.808-.278-.417,1.251-.834.278.417Z"/>
    </g>
  </g>
</svg>
