<svg xmlns="http://www.w3.org/2000/svg" width="30" height="30" viewBox="0 0 30 30">
  <g id="Vector_Smart_Object" data-name="Vector Smart Object" transform="translate(-320.345 -264.654)">
    <g id="그룹_1" data-name="그룹 1">
      <path id="패스_8" data-name="패스 8" d="M350.069,264.932a.948.948,0,0,0-.741-.275l-12.453.939a.945.945,0,0,0-.6.274l-15.654,15.654a.946.946,0,0,0,0,1.339l11.515,11.514a.946.946,0,0,0,1.339,0l15.653-15.653a.944.944,0,0,0,.275-.6l.938-12.453A.945.945,0,0,0,350.069,264.932Zm-5.431,9.022a2.539,2.539,0,1,1,0-3.591A2.54,2.54,0,0,1,344.638,273.954Z" fill="#726bf8"/>
    </g>
  </g>
</svg>
