<svg xmlns="http://www.w3.org/2000/svg" width="24" height="24" viewBox="0 0 24 24">
  <g id="icon_질문내역" transform="translate(-244 -244)">
    <path id="패스_4" data-name="패스 4" d="M254.5,250.25v-4.225c-.084-.007-.164-.025-.25-.025h-8.5a1.752,1.752,0,0,0-1.75,1.75v7.5a.75.75,0,0,0,.4.661.741.741,0,0,0,.354.089.751.751,0,0,0,.415-.125l2.509-1.667a1.224,1.224,0,0,1,.686-.208h5.89a2.736,2.736,0,0,0,2.006-.881,3.241,3.241,0,0,1-1.756-2.869Z" fill="#726bf8"/>
    <path id="패스_5" data-name="패스 5" d="M267.25,254a.747.747,0,0,1-.416-.126l-2.5-1.664a1.239,1.239,0,0,0-.693-.21H257.75a1.752,1.752,0,0,1-1.75-1.75v-4.5a1.752,1.752,0,0,1,1.75-1.75h8.5a1.752,1.752,0,0,1,1.75,1.75v7.5a.751.751,0,0,1-.75.75Z" fill="#726bf8"/>
    <circle id="타원_1" data-name="타원 1" cx="3" cy="3" r="3" transform="translate(246.5 256)" fill="#726bf8"/>
    <circle id="타원_2" data-name="타원 2" cx="3" cy="3" r="3" transform="translate(259.5 256)" fill="#726bf8"/>
    <path id="패스_6" data-name="패스 6" d="M252.25,263h-5.5a2.752,2.752,0,0,0-2.75,2.75v1.5a.75.75,0,0,0,.75.75h9.5a.75.75,0,0,0,.75-.75v-1.5A2.752,2.752,0,0,0,252.25,263Z" fill="#726bf8"/>
    <path id="패스_7" data-name="패스 7" d="M265.25,263h-5.5a2.752,2.752,0,0,0-2.75,2.75v1.5a.75.75,0,0,0,.75.75h9.5a.75.75,0,0,0,.75-.75v-1.5A2.752,2.752,0,0,0,265.25,263Z" fill="#726bf8"/>
  </g>
</svg>
