<svg xmlns="http://www.w3.org/2000/svg" width="15" height="14" viewBox="0 0 15 14">
  <defs>
    <style>
      .cls-1 {
        fill: #fff;
      }
    </style>
  </defs>
  <g id="초기화" transform="translate(761 -430.003)">
    <g id="_7" data-name="7">
      <g id="그룹_3" data-name="그룹 3">
        <path id="패스_9" data-name="패스 9" class="cls-1" d="M-746.314,436h-.7a6.71,6.71,0,0,0-6.484-6,6.523,6.523,0,0,0-5.843,3.832l1.759.722A4.643,4.643,0,0,1-753.494,432a4.773,4.773,0,0,1,4.59,4h-.976a.354.354,0,0,0-.295.156c-.058.087-.063.184.066.347l1.748,1.9a.363.363,0,0,0,.525,0l1.759-1.9a.265.265,0,0,0,.07-.251A.316.316,0,0,0-746.314,436Zm-7.18,6a4.732,4.732,0,0,1-4.47-3.5h.865a.316.316,0,0,0,.307-.252.266.266,0,0,0-.071-.251l-1.759-1.9a.361.361,0,0,0-.524,0l-1.748,1.9c-.158.2-.116.3-.023.4a.306.306,0,0,0,.227.1h.731a6.7,6.7,0,0,0,6.465,5.5,6.479,6.479,0,0,0,5.616-3.4l-1.773-.747A4.6,4.6,0,0,1-753.494,442Z"/>
      </g>
    </g>
  </g>
</svg>
