<svg id="달력" xmlns="http://www.w3.org/2000/svg" xmlns:xlink="http://www.w3.org/1999/xlink" width="16" height="16" viewBox="0 0 16 16">
  <defs>
    <style>
      .cls-1 {
        fill: #726bf8;
      }

      .cls-2 {
        clip-path: url(#clip-path);
      }
    </style>
    <clipPath id="clip-path">
      <rect id="사각형_2" data-name="사각형 2" class="cls-1" width="16" height="16"/>
    </clipPath>
  </defs>
  <g id="그룹_2" data-name="그룹 2" class="cls-2">
    <path id="패스_3" data-name="패스 3" class="cls-1" d="M16,3.428a2.286,2.286,0,0,0-2.286-2.285h-.571V.587A.582.582,0,0,0,12.6,0a.571.571,0,0,0-.6.543v.6H4V.587A.582.582,0,0,0,3.456,0a.571.571,0,0,0-.6.543v.6H2.285A2.285,2.285,0,0,0,0,3.428v.429A.143.143,0,0,0,.143,4H15.857A.143.143,0,0,0,16,3.857ZM0,13.714A2.285,2.285,0,0,0,2.285,16H13.714A2.286,2.286,0,0,0,16,13.714V5.25a.107.107,0,0,0-.107-.107H.107A.107.107,0,0,0,0,5.25ZM12.285,6.573a.857.857,0,1,1-.857.857.857.857,0,0,1,.857-.857m0,2.857a.857.857,0,1,1-.857.857.858.858,0,0,1,.857-.857M9.428,6.573a.857.857,0,1,1-.857.857.856.856,0,0,1,.857-.857m0,2.857a.857.857,0,1,1-.857.857.857.857,0,0,1,.857-.857m0,2.857a.857.857,0,1,1-.857.857.857.857,0,0,1,.857-.857M6.571,9.43a.857.857,0,1,1-.857.857.857.857,0,0,1,.857-.857m0,2.857a.857.857,0,1,1-.857.857.857.857,0,0,1,.857-.857M3.714,9.43a.857.857,0,1,1-.857.857.857.857,0,0,1,.857-.857m0,2.857a.857.857,0,1,1-.857.857.857.857,0,0,1,.857-.857"/>
  </g>
</svg>
