<svg width="110" height="142" viewBox="0 0 110 142" fill="none" xmlns="http://www.w3.org/2000/svg">
<path d="M79.2731 75.7093L44.8981 120.084C43.9294 121.335 42.6157 122.037 41.2458 122.037C39.8759 122.037 38.5621 121.335 37.5934 120.084C36.6248 118.834 36.0806 117.138 36.0806 115.369C36.0806 113.601 36.6248 111.905 37.5934 110.655L68.3204 71L37.602 31.3343C37.1224 30.7151 36.7419 29.9801 36.4823 29.1711C36.2228 28.3621 36.0892 27.4951 36.0892 26.6195C36.0892 25.7438 36.2228 24.8768 36.4823 24.0678C36.7419 23.2588 37.1224 22.5238 37.602 21.9046C38.0816 21.2855 38.6511 20.7943 39.2777 20.4592C39.9044 20.1241 40.5761 19.9517 41.2544 19.9517C41.9327 19.9517 42.6043 20.1241 43.231 20.4592C43.8577 20.7943 44.4271 21.2855 44.9067 21.9046L79.2817 66.2796C79.7618 66.8987 80.1426 67.6341 80.4021 68.4436C80.6616 69.2531 80.7948 70.1207 80.794 70.9968C80.7932 71.8728 80.6584 72.74 80.3974 73.5487C80.1364 74.3574 79.7544 75.0916 79.2731 75.7093Z" fill="#343330"/>
</svg>
