<svg width="110" height="142" viewBox="0 0 110 142" fill="none" xmlns="http://www.w3.org/2000/svg">
<path d="M72.3979 110.666C73.3666 111.916 73.9108 113.612 73.9108 115.381C73.9108 117.149 73.3666 118.845 72.3979 120.096C71.4292 121.346 70.1155 122.048 68.7456 122.048C67.3757 122.048 66.0619 121.346 65.0932 120.096L30.7182 75.7205C30.2375 75.1021 29.8561 74.3673 29.5959 73.5583C29.3356 72.7492 29.2017 71.8817 29.2017 71.0057C29.2017 70.1296 29.3356 69.2622 29.5959 68.4531C29.8561 67.644 30.2375 66.9092 30.7182 66.2908L65.0932 21.9158C66.0619 20.6654 67.3757 19.9629 68.7456 19.9629C70.1155 19.9629 71.4292 20.6654 72.3979 21.9158C73.3666 23.1663 73.9108 24.8623 73.9108 26.6307C73.9108 28.3991 73.3666 30.0951 72.3979 31.3455L41.6796 71.0001L72.3979 110.666Z" fill="#343330"/>
</svg>
