<svg width="17" height="16" viewBox="0 0 17 16" fill="none" xmlns="http://www.w3.org/2000/svg">
<path d="M14.1813 4.81873C14.5997 5.23614 14.9316 5.73199 15.1581 6.27788C15.3846 6.82377 15.5012 7.40897 15.5012 7.99998C15.5012 8.59098 15.3846 9.17618 15.1581 9.72207C14.9316 10.268 14.5997 10.7638 14.1813 11.1812" stroke="#757575" stroke-width="1.5" stroke-linecap="round" stroke-linejoin="round"/>
<path d="M5.5 10.5H2.5C2.36739 10.5 2.24021 10.4473 2.14645 10.3536C2.05268 10.2598 2 10.1326 2 10V6C2 5.86739 2.05268 5.74021 2.14645 5.64645C2.24021 5.55268 2.36739 5.5 2.5 5.5H5.5L10 2V14L5.5 10.5Z" stroke="#757575" stroke-width="1.5" stroke-linecap="round" stroke-linejoin="round"/>
<path d="M5.5 5.5V10.5" stroke="#757575" stroke-width="1.5" stroke-linecap="round" stroke-linejoin="round"/>
<path d="M12.4125 6.58752C12.5984 6.77276 12.746 6.99289 12.8466 7.23528C12.9473 7.47767 12.9991 7.73756 12.9991 8.00002C12.9991 8.26249 12.9473 8.52238 12.8466 8.76477C12.746 9.00716 12.5984 9.22729 12.4125 9.41252" stroke="#757575" stroke-width="1.5" stroke-linecap="round" stroke-linejoin="round"/>
</svg>
