<svg id="슬라이드파일정보" xmlns="http://www.w3.org/2000/svg" xmlns:xlink="http://www.w3.org/1999/xlink" width="24" height="24" viewBox="0 0 24 24">
  <defs>
    <style>
      .cls-1 {
        fill: none;
      }

      .cls-2 {
        clip-path: url(#clip-path);
      }

      .cls-3 {
        fill: #726bf8;
      }
    </style>
    <clipPath id="clip-path">
      <rect id="사각형_79" data-name="사각형 79" class="cls-1" width="24" height="24"/>
    </clipPath>
  </defs>
  <g id="그룹_136" data-name="그룹 136" class="cls-2">
    <path id="패스_159" data-name="패스 159" class="cls-3" d="M23.766.3A.927.927,0,0,0,22.457.241l-.03.03-.714.71a.461.461,0,0,0,0,.652l.654.653a.461.461,0,0,0,.653,0v0l.7-.692A.938.938,0,0,0,23.766.3m-3.5,2.12L9.855,12.819a.518.518,0,0,0-.133.227L9.24,14.481a.226.226,0,0,0,.153.28.232.232,0,0,0,.128,0l1.433-.482a.518.518,0,0,0,.227-.133L21.577,3.73a.519.519,0,0,0,0-.73L21,2.423a.519.519,0,0,0-.733,0"/>
    <path id="패스_160" data-name="패스 160" class="cls-3" d="M19.52,8.4,12.488,15.45a2.382,2.382,0,0,1-.973.588l-1.495.5a2.072,2.072,0,0,1-2.557-2.557l.5-1.495a2.368,2.368,0,0,1,.588-.972L15.6,4.481a.461.461,0,0,0-.326-.788H3.231A3.231,3.231,0,0,0,0,6.924V20.769A3.232,3.232,0,0,0,3.231,24H17.077a3.231,3.231,0,0,0,3.231-3.231V8.729A.462.462,0,0,0,19.52,8.4"/>
  </g>
</svg>
