<svg id="슬라이드" xmlns="http://www.w3.org/2000/svg" xmlns:xlink="http://www.w3.org/1999/xlink" width="24" height="24" viewBox="0 0 24 24">
  <defs>
    <style>
      .cls-1 {
        fill: none;
      }

      .cls-2 {
        clip-path: url(#clip-path);
      }

      .cls-3 {
        fill: #726bf8;
      }
    </style>
    <clipPath id="clip-path">
      <rect id="사각형_81" data-name="사각형 81" class="cls-1" width="24" height="24"/>
    </clipPath>
  </defs>
  <g id="그룹_140" data-name="그룹 140" class="cls-2">
    <path id="패스_163" data-name="패스 163" class="cls-3" d="M13.2,21.6v1.2a1.2,1.2,0,1,1-2.4,0V21.6H2.743A2.743,2.743,0,0,1,0,18.857V6.016A2.416,2.416,0,0,1,2.416,3.6H21.584A2.416,2.416,0,0,1,24,6.016V18.857A2.743,2.743,0,0,1,21.257,21.6ZM7.2,8.4A3.6,3.6,0,1,0,10.8,12H7.2Zm6,2.4h7.2V8.4H13.2Zm0,4.8h7.2V13.2H13.2ZM1.2,0H22.8a1.2,1.2,0,1,1,0,2.4H1.2A1.2,1.2,0,0,1,1.2,0"/>
  </g>
</svg>
