<svg xmlns="http://www.w3.org/2000/svg" width="20" height="24" viewBox="0 0 20 24">
  <defs>
    <style>
      .cls-1 {
        fill: #726bf8;
      }
    </style>
  </defs>
  <path id="스크립트" class="cls-1" d="M96.364,32H83.636A3.541,3.541,0,0,0,80,35.429V52.571A3.541,3.541,0,0,0,83.636,56H96.364A3.541,3.541,0,0,0,100,52.571V35.429A3.541,3.541,0,0,0,96.364,32ZM90,46.571H85.455a.859.859,0,1,1,0-1.714H90a.859.859,0,1,1,0,1.714Zm4.545-4.286H85.455a.859.859,0,1,1,0-1.714h9.091a.859.859,0,1,1,0,1.714Zm0-4.286H85.455a.859.859,0,1,1,0-1.714h9.091a.859.859,0,1,1,0,1.714Z" transform="translate(-80 -32)"/>
</svg>
