<svg id="슬라이드파일목록" xmlns="http://www.w3.org/2000/svg" xmlns:xlink="http://www.w3.org/1999/xlink" width="24" height="24" viewBox="0 0 24 24">
  <defs>
    <style>
      .cls-1 {
        fill: none;
      }

      .cls-2 {
        clip-path: url(#clip-path);
      }

      .cls-3 {
        fill: #726bf8;
      }
    </style>
    <clipPath id="clip-path">
      <rect id="사각형_80" data-name="사각형 80" class="cls-1" width="24" height="24"/>
    </clipPath>
  </defs>
  <g id="그룹_138" data-name="그룹 138" class="cls-2">
    <path id="패스_161" data-name="패스 161" class="cls-3" d="M23.981,12.793,22.267,3.305C21.936,1.235,20.661,0,18.857,0H5.143A3.124,3.124,0,0,0,2.887.871,4.269,4.269,0,0,0,1.731,3.3L.017,12.793A1.105,1.105,0,0,0,0,13v7a3.748,3.748,0,0,0,3.428,4H20.571A3.748,3.748,0,0,0,24,20V13a1.3,1.3,0,0,0-.019-.207M3.41,3.706V3.688C3.6,2.537,4.15,2,5.14,2H18.857c1,0,1.546.534,1.729,1.682a.2.2,0,0,0,0,.024L22.032,11.7a.253.253,0,0,1-.166.3.212.212,0,0,1-.044.005H15.428a.931.931,0,0,0-.857.989,2.81,2.81,0,0,1-2.571,3,2.81,2.81,0,0,1-2.572-3A.93.93,0,0,0,8.571,12H2.177a.234.234,0,0,1-.214-.25.3.3,0,0,1,0-.052Z"/>
    <path id="패스_162" data-name="패스 162" class="cls-3" d="M18,6H6a.937.937,0,0,1-.857-1A.937.937,0,0,1,6,4H18a.937.937,0,0,1,.857,1A.937.937,0,0,1,18,6m.857,4H5.143a.937.937,0,0,1-.857-1,.937.937,0,0,1,.857-1H18.857a.937.937,0,0,1,.857,1,.937.937,0,0,1-.857,1"/>
  </g>
</svg>
